<?xml version="1.0" encoding="UTF-8"?>
<svg version="1.1" xmlns="http://www.w3.org/2000/svg" width="1024" height="1024">
<path d="M0 0 C337.92 0 675.84 0 1024 0 C1024 337.92 1024 675.84 1024 1024 C686.08 1024 348.16 1024 0 1024 C0 686.08 0 348.16 0 0 Z " fill="#FBFBFB" transform="translate(0,0)"/>
<path d="M0 0 C4.59846426 3.26310237 6.68445722 7.00801805 8.7890625 12.26953125 C8.7890625 22.49953125 8.7890625 32.72953125 8.7890625 43.26953125 C78.0890625 43.26953125 147.3890625 43.26953125 218.7890625 43.26953125 C218.7890625 32.70953125 218.7890625 22.14953125 218.7890625 11.26953125 C222.18221095 4.48323435 222.18221095 4.48323435 225.7890625 1.45703125 C226.4696875 0.87308594 227.1503125 0.28914062 227.8515625 -0.3125 C232.30654742 -3.57290227 237.50787314 -3.28679582 242.7890625 -2.73046875 C248.71693566 -0.93569747 252.30605713 2.24990586 255.7890625 7.26953125 C257.87869481 11.4410565 258.0225362 14.90247696 257.984375 19.5390625 C257.98013016 20.56056648 257.98013016 20.56056648 257.97579956 21.60270691 C257.96466775 23.7626658 257.93957707 25.92219919 257.9140625 28.08203125 C257.90402361 29.55272836 257.89489935 31.02343201 257.88671875 32.49414062 C257.86475163 36.08607411 257.8302707 39.6777611 257.7890625 43.26953125 C258.40499268 43.2606488 259.02092285 43.25176636 259.65551758 43.24261475 C266.14590034 43.15317564 272.63610429 43.09340254 279.12695312 43.04980469 C281.53978604 43.0298586 283.95257169 43.00269182 286.36523438 42.96777344 C305.45682816 42.69865479 321.53674976 43.07520526 337.7890625 54.26953125 C339.366875 55.35234375 339.366875 55.35234375 340.9765625 56.45703125 C352.90997365 68.3904424 359.96760268 82.18838195 360.06121141 99.098171 C360.05743208 100.23396732 360.05365276 101.36976364 360.04975891 102.53997803 C360.05358446 103.76341234 360.05741001 104.98684666 360.06135148 106.24735475 C360.06986003 109.6266597 360.06945727 113.00574609 360.06517088 116.38504457 C360.06269821 120.03616755 360.07172462 123.68726526 360.07920837 127.33837891 C360.09194315 134.48549485 360.09375053 141.6325732 360.09140811 148.77969858 C360.08962314 154.59176629 360.09137844 160.40382262 360.09563255 166.21588898 C360.09622774 167.04394875 360.09682293 167.87200853 360.09743616 168.72516103 C360.09864795 170.40753999 360.09986208 172.08991894 360.10107853 173.77229789 C360.11194973 189.54260143 360.10979379 205.31288358 360.10369369 221.08318833 C360.09852699 235.49495395 360.1097742 249.90665192 360.12879191 264.31840417 C360.14818795 279.13092432 360.15642308 293.94341251 360.15266865 308.75594544 C360.15075902 317.06615821 360.15322078 325.37631343 360.16738319 333.68651581 C360.17932062 340.7625603 360.18067561 347.83851184 360.16859303 354.91455767 C360.16272037 358.52113486 360.16155981 362.12754226 360.17359543 365.73410797 C360.18652136 369.65320521 360.17595116 373.57204764 360.1632843 377.4911499 C360.17065859 378.61802334 360.17803287 379.74489677 360.18563062 380.90591788 C360.11535141 391.28197619 358.01823726 401.00165902 353.2890625 410.26953125 C352.94794434 410.94105225 352.60682617 411.61257324 352.25537109 412.30444336 C344.63589891 426.54991145 331.88381686 436.74483516 316.7890625 442.26953125 C305.67351309 445.49448808 295.28041212 446.85368149 283.71638489 446.77073669 C282.17725971 446.7746422 280.63813817 446.78029255 279.09902495 446.78750759 C274.92294499 446.80210058 270.74724832 446.79217881 266.57118142 446.77777088 C262.04695335 446.76657204 257.52277521 446.77863276 252.99855042 446.78761292 C244.15748696 446.8014862 235.31656714 446.7940336 226.47551063 446.77893733 C216.16546816 446.76200801 205.85546078 446.76529611 195.54540869 446.76903141 C177.1436062 446.77489894 158.74187231 446.76078081 140.34008789 446.73608398 C122.50900706 446.71215601 104.67801783 446.70508525 86.84692383 446.71557617 C67.39632331 446.72699954 47.94576507 446.72889872 28.49516505 446.71447808 C26.41914189 446.71295234 24.34311873 446.71143198 22.26709557 446.70991707 C20.73519918 446.70878035 20.73519918 446.70878035 19.17235539 446.70762066 C11.99574955 446.70288963 4.81916268 446.7047208 -2.35744286 446.70898247 C-11.10793224 446.71392189 -19.85833524 446.7078677 -28.6088049 446.68808817 C-33.06831067 446.6782543 -37.52768523 446.67306867 -41.98719788 446.68098068 C-46.07740297 446.68808876 -50.16734451 446.68111447 -54.25751511 446.66337705 C-55.72897752 446.65936561 -57.20046435 446.66027613 -58.67191734 446.66689592 C-80.23298084 446.75551675 -98.6214522 441.13641957 -114.48828125 426.11328125 C-131.55602154 408.02999403 -132.97322688 387.83335288 -132.8499018 364.25481105 C-132.83639037 360.61330901 -132.85201348 356.97190613 -132.86372375 353.33041382 C-132.88200211 346.21839585 -132.87365465 339.10665452 -132.85563553 331.99464546 C-132.841552 326.21042149 -132.83772902 320.4262721 -132.8410778 314.64203262 C-132.84155525 313.81563421 -132.84203269 312.9892358 -132.8425246 312.13779501 C-132.84355103 310.45847977 -132.84460639 308.77916456 -132.84569036 307.09984936 C-132.85423731 292.28574951 -132.83764666 277.47178239 -132.80786133 262.65771484 C-132.77901835 248.31195504 -132.77194796 233.96638633 -132.78735352 219.62060547 C-132.80414571 203.9623514 -132.80811999 188.30418783 -132.79064316 172.64593136 C-132.78879894 170.9737537 -132.78696422 169.30157603 -132.78513908 167.62939835 C-132.78377095 166.39558338 -132.78377095 166.39558338 -132.78237518 165.13684287 C-132.77678932 159.36437452 -132.78005857 153.59195063 -132.78668404 147.81948471 C-132.79444591 140.77804879 -132.78756224 133.73680036 -132.762509 126.69540201 C-132.7500809 123.10874106 -132.74378518 119.52237102 -132.75505066 115.93569946 C-132.81692902 94.01257273 -131.80752238 76.14534351 -115.9609375 59.39453125 C-105.89616835 49.83850043 -91.84051245 43.12244396 -77.77807617 43.15600586 C-76.71735397 43.15608139 -75.65663177 43.15615692 -74.56376648 43.15623474 C-72.86351067 43.16397667 -72.86351067 43.16397667 -71.12890625 43.171875 C-69.95959061 43.17328995 -68.79027496 43.1747049 -67.58552551 43.17616272 C-63.85646999 43.18175332 -60.12747483 43.19430416 -56.3984375 43.20703125 C-53.86783941 43.21204746 -51.33724038 43.21661016 -48.80664062 43.22070312 C-42.60805237 43.23171968 -36.40949925 43.24844852 -30.2109375 43.26953125 C-30.2423584 41.92375 -30.2423584 41.92375 -30.27441406 40.55078125 C-30.34301366 37.18853266 -30.39294044 33.8270389 -30.43066406 30.46435547 C-30.45065045 29.01534208 -30.47784947 27.566408 -30.51269531 26.11767578 C-30.907537 9.26722604 -30.907537 9.26722604 -24.7980957 2.76611328 C-17.44223149 -3.85121981 -8.59204285 -4.84372137 0 0 Z " fill="#FEFEFE" transform="translate(398.2109375,164.73046875)"/>
<path d="M0 0 C4.59846426 3.26310237 6.68445722 7.00801805 8.7890625 12.26953125 C8.7890625 22.49953125 8.7890625 32.72953125 8.7890625 43.26953125 C78.0890625 43.26953125 147.3890625 43.26953125 218.7890625 43.26953125 C218.7890625 32.70953125 218.7890625 22.14953125 218.7890625 11.26953125 C222.18221095 4.48323435 222.18221095 4.48323435 225.7890625 1.45703125 C226.4696875 0.87308594 227.1503125 0.28914062 227.8515625 -0.3125 C232.30654742 -3.57290227 237.50787314 -3.28679582 242.7890625 -2.73046875 C248.71693566 -0.93569747 252.30605713 2.24990586 255.7890625 7.26953125 C257.87869481 11.4410565 258.0225362 14.90247696 257.984375 19.5390625 C257.98013016 20.56056648 257.98013016 20.56056648 257.97579956 21.60270691 C257.96466775 23.7626658 257.93957707 25.92219919 257.9140625 28.08203125 C257.90402361 29.55272836 257.89489935 31.02343201 257.88671875 32.49414062 C257.86475163 36.08607411 257.8302707 39.6777611 257.7890625 43.26953125 C258.40499268 43.2606488 259.02092285 43.25176636 259.65551758 43.24261475 C266.14590034 43.15317564 272.63610429 43.09340254 279.12695312 43.04980469 C281.53978604 43.0298586 283.95257169 43.00269182 286.36523438 42.96777344 C305.45682816 42.69865479 321.53674976 43.07520526 337.7890625 54.26953125 C339.366875 55.35234375 339.366875 55.35234375 340.9765625 56.45703125 C352.90997365 68.3904424 359.96760268 82.18838195 360.06121141 99.098171 C360.05743208 100.23396732 360.05365276 101.36976364 360.04975891 102.53997803 C360.05358446 103.76341234 360.05741001 104.98684666 360.06135148 106.24735475 C360.06986003 109.6266597 360.06945727 113.00574609 360.06517088 116.38504457 C360.06269821 120.03616755 360.07172462 123.68726526 360.07920837 127.33837891 C360.09194315 134.48549485 360.09375053 141.6325732 360.09140811 148.77969858 C360.08962314 154.59176629 360.09137844 160.40382262 360.09563255 166.21588898 C360.09622774 167.04394875 360.09682293 167.87200853 360.09743616 168.72516103 C360.09864795 170.40753999 360.09986208 172.08991894 360.10107853 173.77229789 C360.11194973 189.54260143 360.10979379 205.31288358 360.10369369 221.08318833 C360.09852699 235.49495395 360.1097742 249.90665192 360.12879191 264.31840417 C360.14818795 279.13092432 360.15642308 293.94341251 360.15266865 308.75594544 C360.15075902 317.06615821 360.15322078 325.37631343 360.16738319 333.68651581 C360.17932062 340.7625603 360.18067561 347.83851184 360.16859303 354.91455767 C360.16272037 358.52113486 360.16155981 362.12754226 360.17359543 365.73410797 C360.18652136 369.65320521 360.17595116 373.57204764 360.1632843 377.4911499 C360.17065859 378.61802334 360.17803287 379.74489677 360.18563062 380.90591788 C360.11535141 391.28197619 358.01823726 401.00165902 353.2890625 410.26953125 C352.94794434 410.94105225 352.60682617 411.61257324 352.25537109 412.30444336 C344.63589891 426.54991145 331.88381686 436.74483516 316.7890625 442.26953125 C305.67351309 445.49448808 295.28041212 446.85368149 283.71638489 446.77073669 C282.17725971 446.7746422 280.63813817 446.78029255 279.09902495 446.78750759 C274.92294499 446.80210058 270.74724832 446.79217881 266.57118142 446.77777088 C262.04695335 446.76657204 257.52277521 446.77863276 252.99855042 446.78761292 C244.15748696 446.8014862 235.31656714 446.7940336 226.47551063 446.77893733 C216.16546816 446.76200801 205.85546078 446.76529611 195.54540869 446.76903141 C177.1436062 446.77489894 158.74187231 446.76078081 140.34008789 446.73608398 C122.50900706 446.71215601 104.67801783 446.70508525 86.84692383 446.71557617 C67.39632331 446.72699954 47.94576507 446.72889872 28.49516505 446.71447808 C26.41914189 446.71295234 24.34311873 446.71143198 22.26709557 446.70991707 C20.73519918 446.70878035 20.73519918 446.70878035 19.17235539 446.70762066 C11.99574955 446.70288963 4.81916268 446.7047208 -2.35744286 446.70898247 C-11.10793224 446.71392189 -19.85833524 446.7078677 -28.6088049 446.68808817 C-33.06831067 446.6782543 -37.52768523 446.67306867 -41.98719788 446.68098068 C-46.07740297 446.68808876 -50.16734451 446.68111447 -54.25751511 446.66337705 C-55.72897752 446.65936561 -57.20046435 446.66027613 -58.67191734 446.66689592 C-80.23298084 446.75551675 -98.6214522 441.13641957 -114.48828125 426.11328125 C-131.55602154 408.02999403 -132.97322688 387.83335288 -132.8499018 364.25481105 C-132.83639037 360.61330901 -132.85201348 356.97190613 -132.86372375 353.33041382 C-132.88200211 346.21839585 -132.87365465 339.10665452 -132.85563553 331.99464546 C-132.841552 326.21042149 -132.83772902 320.4262721 -132.8410778 314.64203262 C-132.84155525 313.81563421 -132.84203269 312.9892358 -132.8425246 312.13779501 C-132.84355103 310.45847977 -132.84460639 308.77916456 -132.84569036 307.09984936 C-132.85423731 292.28574951 -132.83764666 277.47178239 -132.80786133 262.65771484 C-132.77901835 248.31195504 -132.77194796 233.96638633 -132.78735352 219.62060547 C-132.80414571 203.9623514 -132.80811999 188.30418783 -132.79064316 172.64593136 C-132.78879894 170.9737537 -132.78696422 169.30157603 -132.78513908 167.62939835 C-132.78377095 166.39558338 -132.78377095 166.39558338 -132.78237518 165.13684287 C-132.77678932 159.36437452 -132.78005857 153.59195063 -132.78668404 147.81948471 C-132.79444591 140.77804879 -132.78756224 133.73680036 -132.762509 126.69540201 C-132.7500809 123.10874106 -132.74378518 119.52237102 -132.75505066 115.93569946 C-132.81692902 94.01257273 -131.80752238 76.14534351 -115.9609375 59.39453125 C-105.89616835 49.83850043 -91.84051245 43.12244396 -77.77807617 43.15600586 C-76.71735397 43.15608139 -75.65663177 43.15615692 -74.56376648 43.15623474 C-72.86351067 43.16397667 -72.86351067 43.16397667 -71.12890625 43.171875 C-69.95959061 43.17328995 -68.79027496 43.1747049 -67.58552551 43.17616272 C-63.85646999 43.18175332 -60.12747483 43.19430416 -56.3984375 43.20703125 C-53.86783941 43.21204746 -51.33724038 43.21661016 -48.80664062 43.22070312 C-42.60805237 43.23171968 -36.40949925 43.24844852 -30.2109375 43.26953125 C-30.2423584 41.92375 -30.2423584 41.92375 -30.27441406 40.55078125 C-30.34301366 37.18853266 -30.39294044 33.8270389 -30.43066406 30.46435547 C-30.45065045 29.01534208 -30.47784947 27.566408 -30.51269531 26.11767578 C-30.907537 9.26722604 -30.907537 9.26722604 -24.7980957 2.76611328 C-17.44223149 -3.85121981 -8.59204285 -4.84372137 0 0 Z M-105.2109375 147.26953125 C-105.2934375 186.80765625 -105.3759375 226.34578125 -105.4609375 267.08203125 C-105.49735352 279.56378174 -105.53376953 292.04553223 -105.57128906 304.90551758 C-105.58466725 316.09938592 -105.58466725 316.09938592 -105.5927124 327.29325867 C-105.59643722 332.27701447 -105.61142009 337.26059964 -105.63323975 342.24430847 C-105.66072354 348.60623557 -105.66889334 354.96791537 -105.6632266 361.32989633 C-105.66441115 363.66166836 -105.67231499 365.99344924 -105.68779802 368.32517016 C-105.78883988 384.2865603 -105.31763879 397.02014712 -93.55078125 408.953125 C-82.3736857 419.16272708 -69.56091918 419.57118566 -55.03578186 419.53022766 C-53.5088129 419.53325226 -51.98184545 419.53714328 -50.45488065 419.54182023 C-46.28010223 419.55206911 -42.10540999 419.54992638 -37.9306246 419.54563963 C-33.4199727 419.54316678 -28.90934125 419.55219346 -24.3986969 419.55967712 C-15.57042342 419.57241015 -6.74218037 419.57421959 2.08610075 419.57187686 C9.26302185 419.57009215 16.43993372 419.57184663 23.61685371 419.5761013 C25.15038293 419.57699409 25.15038293 419.57699409 26.71489253 419.57790491 C28.79194414 419.57911668 30.86899576 419.58033082 32.94604737 419.58154728 C52.41320274 419.59241724 71.88034077 419.59026278 91.34749711 419.58416244 C109.14826585 419.57899256 126.94897988 419.59025156 144.74973779 419.60926066 C163.03936338 419.62864171 181.32896308 419.63689466 199.618599 419.6331374 C209.88214867 419.63122592 220.14565176 419.63370788 230.40919304 419.64785194 C239.14565412 419.65977003 247.88203995 419.66116573 256.61850207 419.64906178 C261.07354444 419.64317641 265.52844919 419.64206426 269.98348236 419.65406418 C274.06639676 419.66493378 278.14905879 419.6618069 282.23196144 419.64780249 C283.70425753 419.64515856 285.17657348 419.64751254 286.64885008 419.65553836 C300.24188279 419.7244601 312.51259119 417.92764551 322.828125 408.3828125 C332.041855 398.40453895 334.11607905 387.32735284 334.02957153 374.06954956 C334.03128357 373.09553696 334.03299561 372.12152435 334.03475952 371.11799622 C334.0380478 367.87139369 334.02705904 364.62500137 334.01611328 361.37841797 C334.01550013 359.00428334 334.01576841 356.63014834 334.0168438 354.25601387 C334.01729418 347.91458691 334.00572636 341.57323587 333.99162292 335.23182678 C333.98020908 329.27507292 333.97969538 323.31833725 333.97827148 317.36157227 C333.96778869 299.95588192 333.93986628 282.55020562 333.9140625 265.14453125 C333.8728125 226.24578125 333.8315625 187.34703125 333.7890625 147.26953125 C188.9190625 147.26953125 44.0490625 147.26953125 -105.2109375 147.26953125 Z " fill="#247DF9" transform="translate(398.2109375,164.73046875)"/>
<path d="M0 0 C8.91 0 17.82 0 27 0 C27.00364563 2.99483963 27.00729126 5.98967926 27.01104736 9.07527161 C27.04635519 36.56498323 27.10142129 64.05458423 27.17792095 91.54420852 C27.18793791 95.15015879 27.19778212 98.75610951 27.20751953 102.36206055 C27.2094609 103.07991329 27.21140228 103.79776604 27.21340248 104.5373719 C27.24438835 116.14705086 27.26139358 127.75671007 27.27319422 139.36642257 C27.28562351 151.28703269 27.3131649 163.20753949 27.35461307 175.12808436 C27.37745198 181.82034432 27.39291046 188.51244792 27.39188385 195.20475197 C27.39113746 201.50766053 27.40908071 207.81024335 27.44116783 214.11306763 C27.44966514 216.4224518 27.45141794 218.73187251 27.44580269 221.04126549 C27.37060514 242.21552555 27.37060514 242.21552555 38 260 C46.61243681 267.99991437 56.88253213 271.11846435 68.48598766 271.13142776 C69.78000663 271.13526891 71.0740256 271.13911005 72.40725726 271.1430676 C73.83621742 271.14228745 75.26517753 271.14140868 76.69413757 271.14044189 C78.21765318 271.14302692 79.74116812 271.14604046 81.26468211 271.1494453 C85.44847499 271.15750239 89.6322507 271.15930415 93.81605041 271.16004276 C98.32949461 271.16189556 102.84292995 271.16944401 107.35636902 271.17617798 C117.22420497 271.18975244 127.09203686 271.19578458 136.95988059 271.20018864 C143.12268202 271.20295244 149.28548188 271.20719003 155.44828224 271.21169281 C172.51514811 271.22388409 189.58201273 271.23418383 206.64888287 271.2375679 C207.74092112 271.23778747 208.83295938 271.23800703 209.9580897 271.23823325 C211.60003785 271.23856067 211.60003785 271.23856067 213.27515668 271.2388947 C215.49325224 271.23933817 217.7113478 271.23978473 219.92944336 271.24023438 C221.57981692 271.24056652 221.57981692 271.24056652 223.26353136 271.24090537 C241.09041755 271.24485317 258.91726286 271.26230727 276.74413326 271.2855939 C295.05170885 271.30931521 313.35926394 271.3217701 331.66685516 271.32293582 C341.94388259 271.32385212 352.22085675 271.32959307 362.49786949 271.34775543 C371.24906151 271.3631669 380.00018378 271.36827068 388.75138678 271.36001733 C393.21450606 271.35611461 397.67748492 271.35702198 402.14058685 271.37107468 C406.23105645 271.38383606 410.32128045 271.38259653 414.41174982 271.37048396 C415.88685972 271.36853084 417.36198716 271.37158753 418.83707245 271.38032833 C432.27320111 271.45486733 444.55794807 269.73400887 454.81640625 260.3359375 C463.55874224 250.73908747 465.30574864 239.3898349 465.2784729 226.80001831 C465.2871615 225.33549907 465.2871615 225.33549907 465.29602563 223.84139359 C465.31291749 220.59719033 465.31589278 217.35313026 465.31884766 214.10888672 C465.32815329 211.77246252 465.33832291 209.43604163 465.34928894 207.09962463 C465.37653122 200.77604532 465.39172128 194.45248821 465.40471697 188.12886572 C465.41878521 182.18399469 465.44191562 176.23916461 465.46498732 170.29432274 C465.5103677 158.52566088 465.54701853 146.75698887 465.578125 134.98828125 C465.60834651 123.56150534 465.64271322 112.13475419 465.68261719 100.70800781 C465.68507874 100.0027171 465.68754028 99.29742638 465.69007643 98.57076322 C465.70245173 95.03224443 465.71490812 91.49372594 465.72740483 87.95520759 C465.83084144 58.63684045 465.91954595 29.31843913 466 0 C474.58 0 483.16 0 492 0 C492.06788935 30.75249169 492.12156672 61.50495923 492.15319599 92.25750773 C492.15694789 95.89221231 492.16083087 99.52691674 492.16479492 103.16162109 C492.16558185 103.88519276 492.16636878 104.60876442 492.16717956 105.3542625 C492.18021585 117.05382545 492.20385986 128.75334396 492.23145839 140.45288059 C492.25956213 152.46722761 492.27618674 164.48155142 492.28226548 176.49592996 C492.28600419 183.24020527 492.29495906 189.9843881 492.31719017 196.72863007 C492.33761005 203.08150975 492.34382262 209.43424767 492.33932304 215.78715706 C492.34014578 218.11388228 492.34607843 220.44061243 492.35761642 222.76730919 C492.42553745 237.1752869 492.18347419 249.90224235 485.5 263 C485.15888184 263.671521 484.81776367 264.34304199 484.46630859 265.03491211 C476.84683641 279.2803802 464.09475436 289.47530391 449 295 C437.88445059 298.22495683 427.49134962 299.58415024 415.92732239 299.50120544 C414.38819721 299.50511095 412.84907567 299.5107613 411.30996245 299.51797634 C407.13388249 299.53256933 402.95818582 299.52264756 398.78211892 299.50823963 C394.25789085 299.49704079 389.73371271 299.50910151 385.20948792 299.51808167 C376.36842446 299.53195495 367.52750464 299.52450235 358.68644813 299.50940608 C348.37640566 299.49247676 338.06639828 299.49576486 327.75634619 299.49950016 C309.3545437 299.50536769 290.95280981 299.49124956 272.55102539 299.46655273 C254.71994456 299.44262476 236.88895533 299.435554 219.05786133 299.44604492 C199.60726081 299.45746829 180.15670257 299.45936747 160.70610255 299.44494683 C158.63007939 299.44342109 156.55405623 299.44190073 154.47803307 299.44038582 C152.94613668 299.4392491 152.94613668 299.4392491 151.38329289 299.43808941 C144.20668705 299.43335838 137.03010018 299.43518955 129.85349464 299.43945122 C121.10300526 299.44439064 112.35260226 299.43833645 103.6021326 299.41855692 C99.14262683 299.40872305 94.68325227 299.40353742 90.22373962 299.41144943 C86.13353453 299.41855751 82.04359299 299.41158322 77.95342239 299.3938458 C76.48195998 299.38983436 75.01047315 299.39074488 73.53902016 299.39736467 C51.97795666 299.4859855 33.5894853 293.86688832 17.72265625 278.84375 C1.45946775 261.61288618 -0.75418838 242.30328275 -0.56762695 219.78515625 C-0.56621401 217.37888621 -0.56701326 214.97261401 -0.56983948 212.56634521 C-0.57111797 206.75035557 -0.54961004 200.93478374 -0.51765118 195.11888921 C-0.4816735 188.34238407 -0.47440511 181.56593526 -0.46871033 174.78934801 C-0.45780893 162.70778511 -0.42464855 150.6263925 -0.37719727 138.54492188 C-0.3311934 126.81967003 -0.29585475 115.09446469 -0.2746582 103.36914062 C-0.27334459 102.64451728 -0.27203097 101.91989393 -0.27067754 101.17331231 C-0.26415163 97.53752936 -0.25783326 93.90174609 -0.25161803 90.2659626 C-0.19991463 60.17718567 -0.11057274 30.08862184 0 0 Z " fill="#3A454F" transform="translate(266,312)"/>
<path d="M0 0 C1.46272737 -0.0165225 2.92537524 -0.04376432 4.38769531 -0.08203125 C6.49896014 -0.13699966 8.60832934 -0.15870401 10.72021484 -0.17333984 C11.98639648 -0.19315918 13.25257813 -0.21297852 14.55712891 -0.23339844 C19.01463393 0.53215467 20.28995446 1.71562733 22.95458984 5.35009766 C24.22100698 8.3140219 25.02111672 11.33871448 25.81005859 14.45947266 C26.05531784 15.37098083 26.30057709 16.28248901 26.55326843 17.22161865 C27.08593532 19.20838119 27.61098685 21.19719745 28.1293335 23.18774414 C28.97742214 26.43759022 29.8489176 29.68038122 30.7265625 32.92236328 C32.91393384 41.01326955 35.07362736 49.1114892 37.22729492 57.21142578 C38.15039789 60.68031234 39.07760691 64.14808035 40.00537109 67.61572266 C40.28762039 68.68211975 40.56986969 69.74851685 40.860672 70.847229 C41.12152084 71.82045105 41.38236969 72.7936731 41.65112305 73.79638672 C41.8795137 74.65460022 42.10790436 75.51281372 42.34321594 76.39703369 C42.78381871 78.33385208 42.78381871 78.33385208 43.95458984 79.35009766 C44.27952423 78.24708061 44.27952423 78.24708061 44.61102295 77.1217804 C46.66926126 70.13543083 48.72825636 63.14930494 50.78806686 56.16341877 C51.84658503 52.57333952 52.90482726 48.98317945 53.96240234 45.39282227 C54.98618837 41.91721512 56.0107469 38.44183649 57.03580475 34.96660423 C57.42352131 33.65166244 57.810976 32.3366434 58.19814301 31.02153969 C59.44244823 26.79536849 60.69629791 22.57212356 61.95458984 18.35009766 C62.31307007 17.13416931 62.67155029 15.91824097 63.04089355 14.66546631 C63.38914185 13.50251038 63.73739014 12.33955444 64.09619141 11.14135742 C64.40445862 10.10463394 64.71272583 9.06791046 65.03033447 7.99977112 C66.34930268 4.21852713 67.47207444 2.39700166 70.95458984 0.35009766 C74.64723718 -0.33658923 78.20801486 -0.34846075 81.95458984 -0.27490234 C83.43185547 -0.30390625 83.43185547 -0.30390625 84.93896484 -0.33349609 C86.36982422 -0.32382812 86.36982422 -0.32382812 87.82958984 -0.31396484 C88.69326172 -0.3083252 89.55693359 -0.30268555 90.44677734 -0.296875 C94.07261649 0.63852937 95.5207998 2.54327696 97.95458984 5.35009766 C99.26371765 8.40988159 99.26371765 8.40988159 100.23461914 11.86523438 C100.50887222 12.81506699 100.50887222 12.81506699 100.78866577 13.78408813 C101.38443103 15.8618818 101.95665806 17.9453776 102.52880859 20.02978516 C102.94141287 21.48601549 103.35548436 22.94183084 103.77095032 24.39724731 C104.85826044 28.22099523 105.92571239 32.05001027 106.98901367 35.88049316 C108.07047593 39.76304376 109.1704909 43.64032381 110.26904297 47.51806641 C112.20293473 54.35341006 114.12055831 61.19313472 116.02641296 68.03634644 C116.99037369 71.47785215 117.96993969 74.91446318 118.95458984 78.35009766 C120.89888525 74.87945617 121.84740876 71.37445941 122.84643555 67.53369141 C123.02401398 66.85678253 123.20159241 66.17987366 123.384552 65.48245239 C123.76873959 64.01732691 124.15113998 62.55173186 124.53194618 61.08572388 C125.13653429 58.76392919 125.74887526 56.44431724 126.36381531 54.12524414 C128.11170449 47.53322387 129.85594925 40.94037736 131.56958008 34.33935547 C132.61946304 30.29747537 133.68715155 26.26066694 134.76662254 22.22659302 C135.17391672 20.69098559 135.57456139 19.15359819 135.96834755 17.61447144 C136.52026703 15.46028946 137.09470175 13.31330695 137.67456055 11.16650391 C138.15515678 9.33261108 138.15515678 9.33261108 138.64546204 7.46166992 C140.17003274 3.83802683 141.64954448 2.42348119 144.95458984 0.35009766 C148.15258789 -0.13574219 148.15258789 -0.13574219 151.71630859 -0.11083984 C152.99957031 -0.10697266 154.28283203 -0.10310547 155.60498047 -0.09912109 C156.26731689 -0.08671387 156.92965332 -0.07430664 157.61206055 -0.06152344 C159.64666417 -0.02481982 161.67945403 -0.0205057 163.71435547 -0.02099609 C173.67380851 0.06931633 173.67380851 0.06931633 175.95458984 2.35009766 C175.72233319 10.4056811 173.16488297 17.72476376 170.68505859 25.33056641 C170.24725499 26.69503467 169.81024084 28.05975645 169.3739624 29.42471313 C168.21236531 33.0519599 167.04064752 36.6758566 165.86655807 40.29907608 C164.65631547 44.03858331 163.45415375 47.78068458 162.25170898 51.52270508 C161.7711811 53.01790407 161.29063609 54.51309757 160.81007385 56.00828552 C160.57329988 56.74499418 160.33652592 57.48170284 160.09257698 58.24073601 C159.37794748 60.46267532 158.66205836 62.6842055 157.94590759 64.90565491 C155.25786396 73.24957614 152.61186964 81.60453319 150.03271484 89.98291016 C149.61443169 91.33594994 149.61443169 91.33594994 149.18769836 92.71632385 C147.67631303 97.60489021 147.67631303 97.60489021 146.18661499 102.50009155 C145.54458656 104.62633611 144.88967594 106.74820342 144.23193359 108.86962891 C143.88380615 110.01536377 143.53567871 111.16109863 143.17700195 112.34155273 C141.46462994 116.55596462 139.61816062 119.44911017 135.56591797 121.64379883 C130.60616074 122.98528889 125.55983805 122.67718408 120.45458984 122.66259766 C118.76269531 122.68676758 118.76269531 122.68676758 117.03662109 122.71142578 C115.40273438 122.71239258 115.40273438 122.71239258 113.73583984 122.71337891 C112.25180664 122.71785034 112.25180664 122.71785034 110.73779297 122.72241211 C107.39617736 122.27539774 105.62293778 121.40316847 102.95458984 119.35009766 C100.61312541 115.90748218 99.29231784 112.67868051 98.19287109 108.67700195 C97.88244873 107.56201828 97.57202637 106.44703461 97.25219727 105.29826355 C96.76456909 103.50440971 96.76456909 103.50440971 96.26708984 101.67431641 C95.74173672 99.78070742 95.21637992 97.88709945 94.69081116 95.9935503 C93.95817627 93.34695223 93.23230486 90.69851841 92.50646973 88.05004883 C91.23882492 83.42753338 89.96375611 78.80707358 88.68383789 74.1879425 C88.00422921 71.73265309 87.32843007 69.27630511 86.65698242 66.81877136 C85.01392057 60.8671231 83.24252764 55.0862217 80.95458984 49.35009766 C80.79252045 49.93430984 80.63045105 50.51852203 80.46347046 51.12043762 C78.74724834 57.30431592 77.02626336 63.48685552 75.30273438 69.66870117 C74.66353716 71.96362124 74.0254804 74.25885932 73.38867188 76.55444336 C71.56197009 83.13776154 69.71272327 89.71393469 67.82946777 96.28131104 C67.25945013 98.28074715 66.69666168 100.28226282 66.14221191 102.28607178 C65.40539405 104.94289036 64.64112431 107.59018223 63.86865234 110.23681641 C63.66122406 111.00862747 63.45379578 111.78043854 63.24008179 112.57563782 C62.12856984 116.27001508 61.07294644 118.2449586 58.16723633 120.82617188 C54.68812392 122.47649634 52.46729488 122.85283566 48.63818359 122.84619141 C47.46191406 122.84683594 46.28564453 122.84748047 45.07373047 122.84814453 C43.85878906 122.82816406 42.64384766 122.80818359 41.39208984 122.78759766 C39.56387695 122.79823242 39.56387695 122.79823242 37.69873047 122.80908203 C27.47689559 122.73618908 27.47689559 122.73618908 22.95458984 119.35009766 C20.65007972 116.62041002 19.35648755 114.16113828 18.25976562 110.77319336 C17.81182144 109.40832542 17.81182144 109.40832542 17.35482788 108.0158844 C16.88213974 106.53583168 16.88213974 106.53583168 16.39990234 105.02587891 C16.06181549 103.98781601 15.72372864 102.94975311 15.37539673 101.88023376 C14.2692152 98.47675966 13.17422373 95.06980154 12.07958984 91.66259766 C11.31741883 89.30858669 10.55471918 86.95474682 9.79150391 84.60107422 C3.78170494 66.03784335 -2.1883253 47.4589102 -8.00405884 28.83378601 C-9.15236664 25.15755716 -10.3253923 21.4928037 -11.54736328 17.84033203 C-11.78614197 17.11368347 -12.02492065 16.38703491 -12.27093506 15.6383667 C-12.72052855 14.27193193 -13.1790961 12.90840222 -13.64849854 11.54864502 C-14.87411016 7.78447028 -15.28841805 5.14574236 -14.04541016 1.35009766 C-11.3714861 -1.3238264 -3.83585652 0.03175804 0 0 Z " fill="#3A444F" transform="translate(250.04541015625,691.64990234375)"/>
<path d="M0 0 C1.22847656 -0.02449219 2.45695312 -0.04898438 3.72265625 -0.07421875 C4.91246094 -0.07808594 6.10226562 -0.08195313 7.328125 -0.0859375 C8.95862793 -0.09826416 8.95862793 -0.09826416 10.62207031 -0.11083984 C14.724885 0.52642219 16.67139701 1.56863421 19.75 4.375 C21.19329995 7.28260237 21.93558396 10.28021653 22.69921875 13.42578125 C22.94089279 14.3420076 23.18256683 15.25823395 23.43156433 16.20222473 C24.22884129 19.25408375 24.99055949 22.31352201 25.75 25.375 C26.30707077 27.56195002 26.86519813 29.74863114 27.42431641 31.93505859 C29.16918115 38.80301649 30.86886088 45.68176077 32.5625 52.5625 C33.43749726 56.11039124 34.31360501 59.65799505 35.19255066 63.20491028 C35.73363235 65.38895469 36.27239201 67.573576 36.80854797 69.75883484 C37.04937607 70.73198135 37.29020416 71.70512787 37.53833008 72.70776367 C37.74895584 73.56375656 37.9595816 74.41974945 38.17658997 75.30168152 C38.68900364 77.41351933 38.68900364 77.41351933 39.75 79.375 C40.00420715 78.4715535 40.25841431 77.56810699 40.52032471 76.63728333 C42.92006801 68.1146349 45.33236567 59.59562783 47.7569313 51.0800066 C49.00295995 46.70214595 50.24456509 42.32313137 51.47607422 37.94116211 C52.66519152 33.71065794 53.86590974 29.48360493 55.07466888 25.25867271 C55.53330056 23.64795587 55.98777273 22.03604854 56.43796539 20.42295265 C57.07032071 18.15992161 57.71747049 15.90161444 58.36816406 13.64379883 C58.55014847 12.9791713 58.73213287 12.31454376 58.91963196 11.629776 C60.14472947 7.45341342 61.72008881 4.50830155 64.75 1.375 C68.41351581 0.15382806 71.81052972 0.19093646 75.625 0.1875 C76.33269531 0.17525391 77.04039062 0.16300781 77.76953125 0.15039062 C82.61373876 0.13685932 86.34847742 0.53596673 90.25019836 3.52381897 C92.40937642 6.1888577 93.0017106 8.87356829 93.92651367 12.16967773 C94.21977791 13.19945236 94.21977791 13.19945236 94.51896667 14.25003052 C95.16176425 16.51691669 95.79009955 18.78753159 96.41796875 21.05859375 C96.86136418 22.63676405 97.30549182 24.21472879 97.75032043 25.79249573 C98.68016952 29.09865136 99.60325985 32.40659418 100.52124023 35.71606445 C101.69786182 39.95706964 102.8878053 44.19418851 104.08240795 48.43015957 C105.00020371 51.68806231 105.91258949 54.94745959 106.82317543 58.20738411 C107.26008037 59.77024055 107.69827363 61.33273743 108.13777733 62.89486504 C108.75098974 65.0787994 109.35730224 67.2645317 109.96166992 69.45092773 C110.30791916 70.69430405 110.6541684 71.93768036 111.01091003 73.21873474 C111.75 76.375 111.75 76.375 111.75 80.375 C112.41 80.375 113.07 80.375 113.75 80.375 C113.83918701 79.36526123 113.92837402 78.35552246 114.02026367 77.31518555 C114.87488542 70.53267501 116.73485037 63.94374452 118.42578125 57.33203125 C118.79597442 55.87572243 119.16610582 54.4193979 119.53617859 52.96305847 C120.31006182 49.9237164 121.08826983 46.88551698 121.86889648 43.84790039 C122.86608578 39.96401932 123.84682911 36.07618419 124.82371235 32.18715382 C125.581221 29.18314856 126.350194 26.1821644 127.12233543 23.18189049 C127.48890013 21.74969148 127.85128547 20.31641575 128.20931435 18.8820591 C128.71124677 16.87614962 129.22922051 14.87503439 129.7512207 12.87426758 C130.04132523 11.73701736 130.33142975 10.59976715 130.63032532 9.42805481 C132.07002142 5.50238678 133.92486825 2.28756588 137.75 0.375 C142.22443572 0.13046163 146.70713724 0.18979644 151.1875 0.1875 C152.44111328 0.17525391 153.69472656 0.16300781 154.98632812 0.15039062 C156.78553711 0.14749023 156.78553711 0.14749023 158.62109375 0.14453125 C159.72380615 0.14042236 160.82651855 0.13631348 161.96264648 0.13208008 C164.75 0.375 164.75 0.375 167.75 2.375 C167.29079776 9.04421545 166.21154406 15.0822459 164.1875 21.4453125 C163.92415359 22.3009227 163.66080719 23.1565329 163.38948059 24.03807068 C162.51844179 26.86151988 161.63433129 29.68068872 160.75 32.5 C159.80982538 35.53130822 158.87267331 38.56354177 157.9355011 41.59577942 C157.27055744 43.74603174 156.60442438 45.89591657 155.93717957 48.04545593 C153.49222587 55.93146474 151.09716228 63.83178946 148.72702408 71.74055481 C148.1474088 73.673995 147.56679451 75.60713218 146.98580933 77.54016113 C146.79541014 78.17368374 146.60501095 78.80720634 146.40884209 79.45992661 C146.12428752 80.40667944 146.12428752 80.40667944 145.83398438 81.37255859 C144.7008109 85.1432012 143.56941277 88.91432276 142.4440918 92.68731689 C141.39216691 96.21142953 140.33175597 99.73288677 139.26953125 103.25390625 C138.95756302 104.30710556 138.64559479 105.36030487 138.32417297 106.44541931 C138.02875107 107.41935135 137.73332916 108.39328339 137.42895508 109.39672852 C137.17584061 110.24171402 136.92272614 111.08669952 136.66194153 111.95729065 C135.19998356 115.83318548 133.67400524 118.69680385 130.3125 121.1640625 C125.11460358 122.93089133 120.20125586 122.80925278 114.75 122.75 C113.14898438 122.76740234 113.14898438 122.76740234 111.515625 122.78515625 C100.88238927 122.74548 100.88238927 122.74548 96.75 119.375 C92.55199533 112.22447232 90.76675065 103.86596138 88.640625 95.93359375 C88.26582504 94.55623072 87.89038672 93.17904126 87.51434326 91.80201721 C86.53480702 88.20843558 85.56385883 84.61258995 84.5947876 81.01617432 C83.60100245 77.33422327 82.59896508 73.65452001 81.59765625 69.97460938 C79.64043425 62.776893 77.69229543 55.57676042 75.75 48.375 C74.31498291 53.5794222 72.88109498 58.78415397 71.44799805 63.98910522 C70.68933558 66.74333615 69.92963018 69.4972781 69.16992188 72.2512207 C66.93199695 80.37283556 64.70090088 88.49503455 62.56640625 96.64453125 C62.25388916 97.83191895 61.94137207 99.01930664 61.61938477 100.24267578 C61.05457329 102.39945941 60.4961017 104.55791687 59.94506836 106.71826172 C58.44273346 112.44388611 57.03255806 117.09244194 52.75 121.375 C47.5590751 123.16228594 41.79254185 122.64122259 36.375 122.6875 C34.68890625 122.73100586 34.68890625 122.73100586 32.96875 122.77539062 C28.31167956 122.8111719 24.59361185 122.69251837 20.2109375 121.04296875 C16.45028618 116.96594518 15.31268579 112.6405872 13.75 107.375 C13.29175645 105.88253477 12.83253694 104.39036898 12.37255859 102.8984375 C10.69145724 97.401232 9.06347472 91.88871547 7.4375 86.375 C6.8307013 84.32287677 6.22376499 82.27079424 5.61669922 80.21875 C4.66163022 76.98936123 3.70711322 73.75981414 2.75421143 70.52978516 C0.70737887 63.59505299 -1.35826154 56.66622533 -3.43772888 49.74121094 C-4.83516186 45.083381 -6.22478479 40.42324144 -7.61312866 35.76269531 C-8.28488707 33.51368132 -8.95984902 31.26562159 -9.63809204 29.01855469 C-10.58794031 25.86911493 -11.52575211 22.71631968 -12.4609375 19.5625 C-12.74461685 18.63219971 -13.0282962 17.70189941 -13.3205719 16.7434082 C-14.77279201 11.7980734 -15.76690739 7.53564146 -15.25 2.375 C-11.49157898 -1.38342102 -5.07161352 0.00525556 0 0 Z " fill="#3A454F" transform="translate(451.25,691.625)"/>
<path d="M0 0 C1.13308594 -0.02449219 2.26617188 -0.04898438 3.43359375 -0.07421875 C4.53316406 -0.07808594 5.63273438 -0.08195313 6.765625 -0.0859375 C8.27044434 -0.09826416 8.27044434 -0.09826416 9.80566406 -0.11083984 C13.7309428 0.5368637 15.75818663 1.75325093 18.75 4.375 C19.87220029 6.96759658 20.55773924 9.0620273 21.16796875 11.7734375 C21.36174606 12.54432709 21.55552338 13.31521667 21.75517273 14.10946655 C22.19354596 15.86708061 22.62075126 17.62750365 23.03900146 19.39001465 C23.81851534 22.66264798 24.63287052 25.92545328 25.45166016 29.18847656 C27.1877375 36.13081583 28.88948884 43.08121339 30.58319092 50.03399658 C31.39257927 53.35390087 32.2052361 56.67300495 33.01757812 59.9921875 C34.59798717 66.45241058 36.1752613 72.91339252 37.75 79.375 C37.96884354 78.52610703 38.18768707 77.67721405 38.41316223 76.80259705 C40.48165125 68.78303292 42.55549522 60.76487672 44.63528919 52.74823666 C45.70421317 48.62726186 46.77109603 44.50578152 47.83325195 40.38305664 C48.85933428 36.40066583 49.89085929 32.41972069 50.92609215 28.43969917 C51.31911014 26.92484816 51.7102006 25.40949564 52.09928322 23.89362907 C52.64670842 21.7622599 53.20110733 19.63281522 53.75708008 17.50366211 C54.07018631 16.2934288 54.38329254 15.0831955 54.70588684 13.83628845 C57.54980282 4.40856172 57.54980282 4.40856172 60.97265625 1.4609375 C64.51063061 0.0775945 67.39278591 -0.02292879 71.1875 0 C72.46496094 -0.00773438 73.74242187 -0.01546875 75.05859375 -0.0234375 C79.07921733 0.41053457 81.41239614 1.09870615 84.75 3.375 C87.15858051 7.54230704 88.48962974 11.60824828 89.63525391 16.26660156 C89.88221764 17.25796112 89.88221764 17.25796112 90.13417053 18.26934814 C90.67156788 20.43320154 91.19902541 22.59934878 91.7265625 24.765625 C92.10033562 26.27700537 92.47480735 27.78821313 92.84994507 29.29925537 C93.83215845 33.26222513 94.80627283 37.22713809 95.77825928 41.19262695 C97.33889885 47.55394516 98.91165571 53.91227613 100.48484421 60.27050018 C101.03304632 62.4912536 101.57765733 64.71286423 102.12173462 66.93463135 C102.45559155 68.29009862 102.78952107 69.64554801 103.12353516 71.00097656 C103.55963608 72.77918793 103.55963608 72.77918793 104.00454712 74.59332275 C104.63181885 77.30567601 104.63181885 77.30567601 105.75 79.375 C105.95631546 78.51135834 106.16263092 77.64771667 106.37519836 76.75790405 C108.32416885 68.60525187 110.2802087 60.4543353 112.24413776 52.30527306 C113.25347944 48.11605657 114.26010946 43.92622759 115.26049805 39.73486328 C116.22666031 35.68734407 117.20000304 31.64161288 118.17827415 27.59700394 C118.54959673 26.05632228 118.91836101 24.51502164 119.28447914 22.97309494 C119.79911315 20.8076628 120.32293481 18.64464284 120.84887695 16.48193359 C121.29188896 14.63660538 121.29188896 14.63660538 121.74385071 12.7539978 C123.04003415 8.40096488 124.38892042 4.59919681 127.80859375 1.5234375 C132.14450632 -0.1694686 136.19986171 -0.0598612 140.8125 0 C141.71033203 -0.01160156 142.60816406 -0.02320313 143.53320312 -0.03515625 C147.14305767 -0.01905281 150.01696397 0.07129804 153.37109375 1.4609375 C155.48801846 4.39944489 154.93982045 6.80349938 154.75 10.375 C154.18383683 13.11363634 153.56273598 15.74974536 152.82568359 18.43969727 C152.6207428 19.21492737 152.415802 19.99015747 152.20465088 20.78887939 C151.52748959 23.341998 150.83806765 25.89163007 150.1484375 28.44140625 C149.66882579 30.239381 149.18996752 32.03755688 148.71182251 33.83592224 C147.44938039 38.57568667 146.17644598 43.31257207 144.90136719 48.0489502 C143.62692061 52.79065294 142.36278173 57.53510045 141.09765625 62.27929688 C138.94977115 70.32892172 136.78878236 78.37493779 134.61948776 86.41881752 C133.33280369 91.19438843 132.06185851 95.97364359 130.80566406 100.75732422 C130.53122467 101.79251694 130.25678528 102.82770966 129.97402954 103.89427185 C129.49916514 105.68617587 129.02975553 107.47954124 128.56771851 109.27479553 C126.03284339 118.7631696 126.03284339 118.7631696 121.91772461 121.66870117 C117.23943533 123.19300468 112.18345183 122.70131438 107.3125 122.6875 C106.18005859 122.70361328 105.04761719 122.71972656 103.88085938 122.73632812 C102.78708984 122.73697266 101.69332031 122.73761719 100.56640625 122.73828125 C99.57068604 122.74126221 98.57496582 122.74424316 97.54907227 122.74731445 C94.08635767 122.2867266 92.42398438 121.65009187 89.75 119.375 C86.43785095 112.46879522 84.98557007 104.80328215 83.17578125 97.390625 C82.84405602 96.04393469 82.51203487 94.69731725 82.17973328 93.35076904 C81.48833474 90.54434174 80.80040375 87.73709404 80.11499023 84.92919922 C79.23717146 81.33424935 78.3507804 77.7414778 77.46183491 74.14926529 C76.77644968 71.37571136 76.0955085 68.60108127 75.41591454 65.82610321 C75.09072833 64.50051488 74.76418411 63.17525891 74.43624306 61.85034943 C73.97944296 60.0019254 73.52924672 58.15187315 73.0793457 56.30175781 C72.82192093 55.25111145 72.56449615 54.20046509 72.29927063 53.11798096 C71.75 50.375 71.75 50.375 71.75 46.375 C71.09 46.375 70.43 46.375 69.75 46.375 C69.57561401 48.29602539 69.57561401 48.29602539 69.39770508 50.25585938 C68.82366833 55.39343499 67.67827384 60.28273602 66.38671875 65.28125 C66.1534639 66.204823 65.92020905 67.128396 65.67988586 68.07995605 C64.93802625 71.01309278 64.18813797 73.94409883 63.4375 76.875 C62.70162383 79.76807233 61.96747763 82.66157401 61.23464966 85.55541992 C60.75469719 87.44808064 60.27251723 89.34017796 59.78805542 91.23168945 C58.67308746 95.60684006 57.59862883 99.98158218 56.64306641 104.39453125 C56.47257278 105.17050659 56.30207916 105.94648193 56.12641907 106.74597168 C55.81693876 108.17349503 55.51858443 109.60350138 55.23429871 111.03625488 C54.28553928 115.3938739 52.82972613 118.15251007 49.75 121.375 C45.55088549 123.47455726 40.05106096 122.60436921 35.4375 122.625 C34.29603516 122.645625 33.15457031 122.66625 31.97851562 122.6875 C30.87572266 122.69265625 29.77292969 122.6978125 28.63671875 122.703125 C27.62826904 122.7124707 26.61981934 122.72181641 25.58081055 122.73144531 C21.99902533 122.28044002 20.48178913 121.78844904 17.75 119.375 C13.65224758 111.90455756 11.82785573 103.12799073 9.5546875 94.97265625 C9.16161984 93.57847809 8.76804308 92.18444338 8.37399292 90.7905426 C7.33200631 87.09968005 6.29650158 83.40703162 5.26268005 79.71387482 C3.56102801 73.63935854 1.84961697 67.56757637 0.14053345 61.49514771 C-0.48980201 59.25457316 -1.11932454 57.01377131 -1.7487793 54.77294922 C-4.04141104 46.61807351 -6.36749426 38.4745621 -8.7578125 30.34765625 C-9.00302643 29.50991165 -9.24824036 28.67216705 -9.50088501 27.80903625 C-10.80743288 23.34366026 -10.80743288 23.34366026 -12.13677979 18.88504028 C-12.71007195 16.98088517 -13.26957359 15.07259359 -13.828125 13.1640625 C-14.13137695 12.15037598 -14.43462891 11.13668945 -14.74707031 10.09228516 C-15.29588245 7.12710112 -15.15368901 5.23997848 -14.25 2.375 C-10.62876702 -1.24623298 -4.89543142 0.00549431 0 0 Z " fill="#3A454F" transform="translate(640.25,691.625)"/>
<path d="M0 0 C4.05453543 2.83036092 6.9499669 6.70289352 8.82421875 11.2734375 C9.16015625 14.0078125 9.16015625 14.0078125 9.19921875 17.0234375 C9.22757813 18.00828125 9.2559375 18.993125 9.28515625 20.0078125 C7.83558182 30.27767878 -0.01833217 36.67270226 -7.00927734 43.59277344 C-8.23248811 44.81813244 -9.45483188 46.04435743 -10.67637634 47.27137756 C-13.98345499 50.58811676 -17.30284287 53.89227552 -20.62490416 57.19399929 C-24.10537787 60.65685283 -27.57525002 64.13030018 -31.04653931 67.60235596 C-36.87546488 73.42941096 -42.71206902 79.24868299 -48.55371094 85.06298828 C-55.30185869 91.77967319 -62.03948425 98.50676608 -68.77118433 105.23993278 C-75.94764883 112.41774947 -83.13171139 119.58792423 -90.31802416 126.7558794 C-92.38445627 128.81805468 -94.44946877 130.88164246 -96.5141716 132.94554901 C-99.7614628 136.19082712 -103.01382183 139.43094202 -106.27012825 142.66717339 C-107.46262375 143.85384141 -108.65344991 145.04218974 -109.84245491 146.23235512 C-111.46895306 147.85983953 -113.10149385 149.48101686 -114.73568726 151.10076904 C-115.64675421 152.00848431 -116.55782116 152.91619957 -117.4964962 153.85142136 C-123.02190087 158.84626852 -127.47434557 161.4062709 -134.92578125 161.5859375 C-135.93125 161.62332031 -136.93671875 161.66070313 -137.97265625 161.69921875 C-145.28035109 160.72783005 -150.19017656 155.69708106 -155.16503906 150.67236328 C-155.82448517 150.01817413 -156.48393127 149.36398499 -157.1633606 148.68997192 C-159.3261151 146.54034716 -161.47779679 144.38002311 -163.62890625 142.21875 C-165.13585353 140.71382522 -166.64324577 139.20934588 -168.15106201 137.70529175 C-171.30287456 134.55789285 -174.44922049 131.4051553 -177.59179688 128.24853516 C-181.61550226 124.20772408 -185.65254604 120.18055065 -189.69377518 116.15727425 C-192.80646517 113.05543524 -195.91196164 109.94647341 -199.01534271 106.83532333 C-200.50106514 105.34760332 -201.98900924 103.86209851 -203.47922516 102.37887955 C-205.56153936 100.30420273 -207.63396394 98.22011837 -209.70410156 96.13330078 C-210.31816864 95.5253064 -210.93223572 94.91731201 -211.56491089 94.29089355 C-215.58382654 90.21192901 -218.73534718 86.34784006 -219.57421875 80.4921875 C-219.51721429 73.87967066 -219.184952 69.28887735 -214.30078125 64.39453125 C-209.60960415 60.12590502 -206.4465447 58.13527086 -199.98828125 57.8984375 C-199.08722656 57.84945312 -198.18617188 57.80046875 -197.2578125 57.75 C-188.44718764 59.24635454 -182.20018508 66.86459867 -176.234375 72.95703125 C-174.81848663 74.38303097 -173.40259583 75.80902828 -171.98656559 77.23488712 C-170.0201506 79.21873924 -168.06077174 81.20947063 -166.10131836 83.20019531 C-162.6711074 86.68274583 -159.23098389 90.15549289 -155.78907776 93.6264801 C-153.96267792 95.46971221 -152.13938231 97.31602707 -150.31968689 99.1658783 C-145.76934741 103.76942656 -141.16553889 108.14871184 -136.17578125 112.2734375 C-132.60352687 110.75708885 -130.3353338 108.66859727 -127.61726379 105.92178345 C-126.70762878 105.00767197 -125.79799377 104.09356049 -124.86079407 103.15174866 C-123.8600035 102.13590605 -122.85928888 101.11998862 -121.85864258 100.10400391 C-120.79924612 99.03585578 -119.73936856 97.96818464 -118.67904663 96.9009552 C-116.39717982 94.60260371 -114.11831393 92.30133151 -111.84159279 89.99788284 C-108.23724461 86.35213896 -104.62364401 82.71566275 -101.00822449 79.0809021 C-90.72875384 68.74388222 -80.4592605 58.39702234 -70.20483398 48.03515625 C-64.54069276 42.31182991 -58.86754876 36.59758527 -53.18448848 30.89304292 C-49.59240747 27.28636408 -46.01166371 23.66891383 -42.43898642 20.04301858 C-40.20679873 17.78297199 -37.96408672 15.53359922 -35.7183342 13.2870388 C-34.68402244 12.2481814 -33.65397344 11.2050584 -32.62871742 10.1572628 C-23.30490774 0.63697164 -13.25635036 -7.34438271 0 0 Z " fill="#3A454F" transform="translate(621.17578125,366.7265625)"/>
<path d="M0 0 C4.4154384 3.13322594 7.12484321 7.1232783 8.7890625 12.26953125 C9.05648804 15.47444153 9.05648804 15.47444153 9.07958984 19.13598633 C9.08630707 19.80661606 9.09302429 20.47724579 9.09994507 21.16819763 C9.1188714 23.37522893 9.12284667 25.58195519 9.125 27.7890625 C9.13143233 29.33216982 9.13816102 30.87527594 9.14517212 32.41838074 C9.15713194 35.65044988 9.16085435 38.88241225 9.15966797 42.11450195 C9.159465 46.24026631 9.18674898 50.36534011 9.22121239 54.49094105 C9.24353762 57.67814733 9.24750378 60.865189 9.24644852 64.05246544 C9.24879672 65.57260197 9.25757598 67.09274357 9.27311325 68.61280251 C9.3581804 77.7958227 9.34053467 85.11119612 2.97265625 92.328125 C2.39644531 92.78316406 1.82023437 93.23820312 1.2265625 93.70703125 C0.64777344 94.18011719 0.06898438 94.65320313 -0.52734375 95.140625 C-5.40146665 98.40888839 -11.61768744 97.98430142 -17.2109375 97.26953125 C-23.03173349 94.9429299 -26.59667887 91.65234261 -29.35302734 85.96569824 C-31.26176486 79.9670805 -30.78030023 73.47862444 -30.7421875 67.23828125 C-30.74488671 65.67704019 -30.74877269 64.11580078 -30.75378418 62.55456543 C-30.75965915 59.29321175 -30.75118163 56.03229831 -30.73242188 52.77099609 C-30.70963295 48.60825298 -30.7227669 44.4465417 -30.74671173 40.28383636 C-30.76122439 37.0631342 -30.75653888 33.84267327 -30.74620056 30.6219635 C-30.74354833 29.08789444 -30.74674965 27.55380287 -30.75611877 26.01976013 C-30.83634654 9.19490196 -30.83634654 9.19490196 -24.79919434 2.76623535 C-17.44076922 -3.84922373 -8.59393215 -4.84478645 0 0 Z " fill="#3B454E" transform="translate(398.2109375,164.73046875)"/>
<path d="M0 0 C5.4193301 3.09832408 8.76036207 7.41572569 10.6875 13.375 C10.95492554 16.57991028 10.95492554 16.57991028 10.97802734 20.24145508 C10.98474457 20.91208481 10.99146179 21.58271454 10.99838257 22.27366638 C11.0173089 24.48069768 11.02128417 26.68742394 11.0234375 28.89453125 C11.02986983 30.43763857 11.03659852 31.98074469 11.04360962 33.52384949 C11.05556944 36.75591863 11.05929185 39.987881 11.05810547 43.2199707 C11.0579025 47.34573506 11.08518648 51.47080886 11.11964989 55.5964098 C11.14197512 58.78361608 11.14594128 61.97065775 11.14488602 65.15793419 C11.14723422 66.67807072 11.15601348 68.19821232 11.17155075 69.71827126 C11.32640444 86.43476579 11.32640444 86.43476579 5.27548218 92.8787384 C0.00123987 97.61977441 -4.81095792 98.90250982 -11.74609375 98.7578125 C-17.25473688 97.93612753 -20.99279929 94.79888761 -24.6875 90.8125 C-27.82771048 86.10218427 -28.56595486 83.16890318 -28.5871582 77.40673828 C-28.5948246 76.36693314 -28.5948246 76.36693314 -28.60264587 75.30612183 C-28.61652291 73.01909705 -28.61558636 70.73237433 -28.61328125 68.4453125 C-28.61716965 66.85114429 -28.62150462 65.25697712 -28.62626648 63.66281128 C-28.63372493 60.32221112 -28.63344046 56.98171664 -28.62817383 53.64111328 C-28.62238423 49.36838769 -28.63929942 45.0960963 -28.6625185 40.82344246 C-28.67728008 37.53080736 -28.67812418 34.23827619 -28.67500877 30.94561386 C-28.67552092 29.37080908 -28.6807386 27.79599833 -28.69082069 26.22122574 C-28.70321316 24.01455077 -28.6963771 21.80871321 -28.68481445 19.60205078 C-28.68544388 18.348367 -28.6860733 17.09468323 -28.6867218 15.80300903 C-28.05659325 10.03080029 -25.70290738 6.24611832 -21.3125 2.5625 C-20.631875 1.97855469 -19.95125 1.39460937 -19.25 0.79296875 C-13.83607389 -3.16923927 -5.89988089 -2.70317736 0 0 Z " fill="#3B454E" transform="translate(645.3125,163.625)"/>
<path d="M0 0 C0.66 0.33 1.32 0.66 2 1 C1.59007812 1.79664063 1.18015625 2.59328125 0.7578125 3.4140625 C0.21898437 4.47367188 -0.31984375 5.53328125 -0.875 6.625 C-1.40867187 7.66914063 -1.94234375 8.71328125 -2.4921875 9.7890625 C-3.91454291 12.81801625 -5.0122001 15.80643334 -6 19 C-7.11435288 16.19723367 -7.00643141 15.02021689 -6.07421875 12.08984375 C-5.38779297 10.52943359 -5.38779297 10.52943359 -4.6875 8.9375 C-4.23761719 7.89464844 -3.78773438 6.85179687 -3.32421875 5.77734375 C-2 3 -2 3 0 0 Z " fill="#0E6AF9" transform="translate(275,233)"/>
</svg>
