<svg width="200" height="200" viewBox="0 0 200 200" fill="none" xmlns="http://www.w3.org/2000/svg">
  <g transform="rotate(-30 100 100)">
    <path d="M30 50 C35 50, 40 55, 45 50 L155 50 C160 55, 165 50, 170 50 L170 70 
             C160 70, 160 90, 170 90 L170 110 C160 110, 160 130, 170 130 L170 150
             C165 150, 160 145, 155 150 L45 150 C40 145, 35 150, 30 150 L30 130
             C40 130, 40 110, 30 110 L30 90 C40 90, 40 70, 30 70 Z" fill="#F4B63F" stroke="#C58B2B" stroke-width="4"></path>
    <rect x="55" y="65" width="90" height="70" fill="none" stroke="#C58B2B" stroke-width="3"></rect>
  </g>
</svg>
