<?xml version="1.0" standalone="no"?>
<!DOCTYPE svg PUBLIC "-//W3C//DTD SVG 20010904//EN"
 "http://www.w3.org/TR/2001/REC-SVG-20010904/DTD/svg10.dtd">
<svg version="1.0" xmlns="http://www.w3.org/2000/svg"
 width="256.000000pt" height="256.000000pt" viewBox="0 0 256.000000 256.000000"
 preserveAspectRatio="xMidYMid meet">

<g transform="translate(0.000000,256.000000) scale(0.100000,-0.100000)"
fill="#000000" stroke="none">
<path d="M1087 2499 c-351 -29 -656 -154 -785 -322 -23 -29 -54 -80 -69 -112
-26 -56 -28 -69 -28 -190 0 -116 3 -139 28 -213 15 -46 25 -87 22 -92 -4 -6
-16 -10 -29 -10 -35 0 -89 -41 -109 -83 -16 -31 -17 -46 -9 -99 23 -143 88
-247 175 -279 34 -12 35 -13 41 -83 10 -108 26 -175 57 -244 97 -214 416 -451
764 -567 83 -28 119 -35 148 -31 72 12 193 57 322 122 253 126 453 296 535
456 31 62 60 180 60 250 0 68 8 82 55 101 82 34 138 122 161 254 14 78 7 122
-23 155 -23 26 -66 48 -93 48 -29 0 -34 21 -16 64 21 50 46 187 46 251 0 174
-81 317 -243 427 -227 155 -612 230 -1010 197z m423 -400 c80 -5 179 -17 220
-25 158 -33 286 -108 330 -194 60 -118 68 -346 19 -583 -32 -156 -56 -220 -84
-231 -57 -21 -124 1 -252 83 -107 68 -154 88 -245 100 -84 12 -165 2 -205 -24
-21 -14 -26 -14 -54 0 -73 38 -203 37 -309 -2 -24 -9 -78 -39 -120 -66 -151
-99 -239 -121 -284 -72 -13 14 -26 38 -29 53 -3 15 -11 47 -17 72 -22 87 -60
321 -60 373 0 63 25 210 45 267 8 23 24 55 36 72 47 65 191 132 340 158 158
27 442 36 669 19z m-1201 -672 c13 -78 15 -237 2 -237 -6 0 -24 30 -42 67 -56
118 -51 233 11 233 14 0 20 -13 29 -63z m1983 46 c23 -20 24 -80 2 -154 -17
-59 -53 -129 -66 -129 -12 0 -10 137 3 225 12 80 24 92 61 58z m-951 -433
c164 -69 306 -95 479 -87 89 4 118 2 113 -6 -25 -44 -76 -96 -125 -128 -129
-83 -264 -101 -400 -53 -125 44 -144 47 -180 34 -138 -51 -174 -60 -242 -60
-148 0 -298 78 -370 192 l-17 26 133 -5 c161 -6 270 13 423 75 55 22 104 40
108 41 4 1 39 -12 78 -29z"/>
</g>
</svg>
