<?xml version="1.0" encoding="iso-8859-1"?>
<!-- Uploaded to: SVG Repo, www.svgrepo.com, Generator: SVG Repo Mixer Tools -->
<svg height="800px" width="800px" version="1.1" id="Layer_1" xmlns="http://www.w3.org/2000/svg" xmlns:xlink="http://www.w3.org/1999/xlink" 
	 viewBox="0 0 512 512" xml:space="preserve">
<g transform="translate(0 1)">
	<path d="M46.8,468.333c-1.707,0-4.267-0.853-5.973-2.56c-3.413-3.413-3.413-8.533,0-11.947c0,0,0,0,0.853-0.853
		C85.2,406.04,15.227,303.64,14.373,301.933c-2.56-4.267-1.707-9.387,2.56-11.947c4.267-2.56,9.387-1.707,11.947,2.56
		c2.56,3.413,51.2,75.093,43.52,132.267c26.453-23.04,67.413-50.347,102.4-50.347h23.04c29.013,0,57.173,4.267,85.333,12.8
		c21.333,5.973,49.493,12.8,104.96,12.8c5.12,0,8.533,3.413,8.533,8.533c0,5.12-3.413,8.533-8.533,8.533
		c-58.027,0-87.04-6.827-110.08-13.653c-26.453-7.68-52.907-11.947-80.213-11.947H174.8c-48.64,0-114.347,66.56-121.173,73.387
		c0,0,0,0-0.853,0.853C51.067,467.48,49.36,468.333,46.8,468.333"/>
	<path style="fill:#75DAE7;" d="M72.4,511c-2.56,0-4.267-0.853-5.973-2.56c-3.413-3.413-3.413-8.533,0-11.947
		c3.413-3.413,75.947-70.827,133.973-70.827h23.04c29.013,0,62.293,9.387,90.453,17.067c4.267,1.707,6.827,5.973,5.973,10.24
		c-1.707,4.267-5.973,6.827-10.24,5.973c-29.013-8.533-59.733-17.067-85.333-17.067H200.4c-51.2,0-121.173,65.707-122.027,65.707
		C76.667,510.147,74.107,511,72.4,511"/>
	<path d="M89.467,429.933c-1.707,0-4.267-0.853-5.973-2.56c-3.413-3.413-3.413-8.533,0-11.947
		c34.987-36.693-1.707-138.24-18.773-174.08c-1.707-4.267,0-9.387,4.267-11.093c4.267-1.707,9.387,0,11.093,4.267
		c2.56,5.973,65.707,140.8,15.36,193.707C93.733,429.08,92.027,429.933,89.467,429.933"/>
	<path d="M123.6,407.747c-1.707,0-3.413-0.853-5.12-1.707c-3.413-2.56-4.267-8.533-1.707-11.947
		c53.76-67.413-0.853-185.173-0.853-186.027c-1.707-4.267,0-9.387,4.267-11.093c4.267-1.707,9.387,0,11.093,4.267
		c2.56,5.12,59.733,128.853-0.853,203.947C128.72,406.893,126.16,407.747,123.6,407.747"/>
	<path d="M166.267,391.533c-2.56,0-4.267-0.853-5.973-2.56c-3.413-3.413-3.413-8.533,0-11.947
		c60.587-60.587,15.36-203.093,15.36-204.8c-1.707-4.267,0.853-9.387,5.12-11.093c4.267-1.707,9.387,0.853,11.093,5.12
		c1.707,5.973,48.64,154.453-18.773,221.867C170.533,390.68,168.827,391.533,166.267,391.533"/>
	<path d="M200.4,391.533c-3.413,0-6.827-2.56-8.533-5.973c-0.853-4.267,1.707-9.387,5.973-10.24
		c43.52-11.947,58.027-72.533,63.147-122.027c5.12-54.613-0.853-107.52-0.853-108.373c-0.853-4.267,2.56-8.533,7.68-9.387
		c4.267-0.853,8.533,2.56,9.387,7.68c0.853,9.387,24.747,221.013-74.24,248.32C202.107,391.533,201.253,391.533,200.4,391.533"/>
	<path d="M251.6,396.653c-5.12,0-8.533-3.413-8.533-8.533c0-5.12,3.413-8.533,8.533-8.533c89.6,0,93.867-215.893,93.867-218.453
		c0-5.12,3.413-8.533,8.533-8.533c5.12,0,8.533,4.267,8.533,8.533C362.533,170.52,358.267,396.653,251.6,396.653"/>
	<path d="M302.8,408.6c-5.12,0-8.533-3.413-8.533-8.533s3.413-8.533,8.533-8.533c85.333,0,110.933-186.88,110.933-188.587
		c0.853-4.267,5.12-7.68,9.387-7.68c4.267,0.853,7.68,5.12,7.68,9.387C429.947,213.187,402.64,408.6,302.8,408.6"/>
	<path d="M379.6,417.133c-5.12,0-8.533-3.413-8.533-8.533c0-5.12,3.413-8.533,8.533-8.533c35.84,0,62.293-17.92,78.507-54.613
		c12.8-28.16,15.36-57.173,15.36-57.173c0-5.12,4.267-8.533,9.387-7.68c5.12,0,8.533,4.267,7.68,9.387
		C490.533,290.84,481.147,417.133,379.6,417.133"/>
	<path d="M405.2,67.267H63.867c-5.12,0-8.533-3.413-8.533-8.533s3.413-8.533,8.533-8.533H405.2c5.12,0,8.533,3.413,8.533,8.533
		S410.32,67.267,405.2,67.267z"/>
	<path style="fill:#2A373E;" d="M499.067,84.333h-81.92c-6.827,0-11.947-5.12-11.947-11.947V45.08
		c0-6.827,5.12-11.947,11.947-11.947h81.92V84.333z"/>
	<path d="M328.4,92.867c-5.12,0-8.533-3.413-8.533-8.533v-51.2c0-5.12,3.413-8.533,8.533-8.533s8.533,3.413,8.533,8.533v51.2
		C336.933,89.453,333.52,92.867,328.4,92.867z"/>
	<path d="M354,84.333c-5.12,0-8.533-3.413-8.533-8.533V41.667c0-5.12,3.413-8.533,8.533-8.533c5.12,0,8.533,3.413,8.533,8.533V75.8
		C362.533,80.92,359.12,84.333,354,84.333z"/>
	<path d="M379.6,84.333c-5.12,0-8.533-3.413-8.533-8.533V41.667c0-5.12,3.413-8.533,8.533-8.533c5.12,0,8.533,3.413,8.533,8.533
		V75.8C388.133,80.92,384.72,84.333,379.6,84.333z"/>
	<path d="M302.8,101.4c-5.12,0-8.533-3.413-8.533-8.533V24.6c0-5.12,3.413-8.533,8.533-8.533s8.533,3.413,8.533,8.533v68.267
		C311.333,97.987,307.92,101.4,302.8,101.4z"/>
	<path d="M277.2,109.933c-5.12,0-8.533-3.413-8.533-8.533V16.067c0-5.12,3.413-8.533,8.533-8.533s8.533,3.413,8.533,8.533V101.4
		C285.733,106.52,282.32,109.933,277.2,109.933z"/>
	<path d="M251.6,118.467c-5.12,0-8.533-3.413-8.533-8.533V7.533c0-5.12,3.413-8.533,8.533-8.533s8.533,3.413,8.533,8.533v102.4
		C260.133,115.053,256.72,118.467,251.6,118.467z"/>
	<path d="M226,118.467c-5.12,0-8.533-3.413-8.533-8.533V7.533C217.467,2.413,220.88-1,226-1c5.12,0,8.533,3.413,8.533,8.533v102.4
		C234.533,115.053,231.12,118.467,226,118.467z"/>
	<path d="M200.4,118.467c-5.12,0-8.533-3.413-8.533-8.533V7.533c0-5.12,3.413-8.533,8.533-8.533c5.12,0,8.533,3.413,8.533,8.533
		v102.4C208.933,115.053,205.52,118.467,200.4,118.467z"/>
	<path d="M174.8,118.467c-5.12,0-8.533-3.413-8.533-8.533V7.533c0-5.12,3.413-8.533,8.533-8.533c5.12,0,8.533,3.413,8.533,8.533
		v102.4C183.333,115.053,179.92,118.467,174.8,118.467z"/>
	<path d="M149.2,109.933c-5.12,0-8.533-3.413-8.533-8.533V16.067c0-5.12,3.413-8.533,8.533-8.533c5.12,0,8.533,3.413,8.533,8.533
		V101.4C157.733,106.52,154.32,109.933,149.2,109.933z"/>
	<path d="M123.6,101.4c-5.12,0-8.533-3.413-8.533-8.533V24.6c0-5.12,3.413-8.533,8.533-8.533c5.12,0,8.533,3.413,8.533,8.533v68.267
		C132.133,97.987,128.72,101.4,123.6,101.4z"/>
	<path d="M98,92.867c-5.12,0-8.533-3.413-8.533-8.533v-51.2c0-5.12,3.413-8.533,8.533-8.533s8.533,3.413,8.533,8.533v51.2
		C106.533,89.453,103.12,92.867,98,92.867z"/>
	<path d="M72.4,84.333c-5.12,0-8.533-3.413-8.533-8.533V41.667c0-5.12,3.413-8.533,8.533-8.533c5.12,0,8.533,3.413,8.533,8.533V75.8
		C80.933,80.92,77.52,84.333,72.4,84.333z"/>
</g>
</svg>