<?xml version="1.0" standalone="no"?>
<!DOCTYPE svg PUBLIC "-//W3C//DTD SVG 20010904//EN"
 "http://www.w3.org/TR/2001/REC-SVG-20010904/DTD/svg10.dtd">
<svg version="1.0" xmlns="http://www.w3.org/2000/svg"
 width="500.000000pt" height="500.000000pt" viewBox="0 0 500.000000 500.000000"
 preserveAspectRatio="xMidYMid meet">
<metadata>
Created by potrace 1.16, written by Peter Selinger 2001-2019
</metadata>
<g transform="translate(0.000000,500.000000) scale(0.100000,-0.100000)"
fill="#000000" stroke="none">
<path d="M4625 4659 c-74 -53 -380 -222 -610 -337 -356 -177 -602 -234 -803
-187 -136 32 -401 156 -596 278 -112 71 -163 83 -276 68 -165 -22 -193 -18
-383 55 -249 96 -260 99 -360 80 -148 -29 -348 -40 -471 -27 -62 6 -131 11
-154 11 l-42 0 6 -42 c18 -118 79 -153 324 -183 68 -8 144 -15 167 -15 24 0
43 -4 43 -10 0 -18 -333 -232 -575 -370 -60 -34 -118 -69 -127 -78 -23 -20
-23 -42 0 -42 11 0 36 -16 56 -36 36 -35 39 -36 104 -32 73 4 98 14 322 133
218 116 354 183 395 195 49 15 74 36 30 26 -54 -13 -149 -55 -256 -112 -57
-31 -180 -94 -272 -140 -153 -76 -175 -84 -226 -84 -44 0 -62 5 -79 20 -12 12
-22 22 -22 24 0 3 30 21 67 41 86 47 113 72 113 104 0 22 13 33 82 71 122 67
265 159 375 242 54 40 106 76 115 80 9 4 131 16 270 27 139 12 323 28 408 37
168 17 231 15 282 -12 l33 -18 -80 -12 c-134 -21 -605 -132 -650 -154 -29 -14
-75 -58 -139 -130 -109 -123 -227 -228 -434 -384 -78 -59 -149 -117 -157 -129
-18 -26 -19 -47 -2 -47 6 0 26 -7 42 -16 108 -58 187 -34 399 123 47 35 96 67
111 73 26 10 400 -2 412 -14 11 -10 -81 -112 -249 -277 -123 -121 -169 -171
-166 -185 3 -14 11 -18 33 -16 17 1 60 2 97 2 38 -1 82 6 103 14 56 24 168
122 304 265 70 74 132 131 142 131 10 0 81 -31 158 -70 234 -117 367 -161 546
-180 166 -17 248 -4 580 95 163 48 304 84 605 150 140 31 259 61 264 66 15 14
-5 11 -97 -11 -45 -11 -185 -42 -312 -70 -243 -53 -510 -122 -660 -171 -280
-90 -543 -50 -923 140 l-155 78 58 47 c32 26 76 56 98 67 48 25 221 63 251 55
12 -3 74 -60 136 -127 127 -135 222 -219 248 -218 14 0 14 2 -3 12 -11 6 -98
90 -193 187 -124 125 -172 179 -169 192 7 23 -1 23 -21 -2 -12 -13 -47 -25
-112 -38 -155 -31 -176 -46 -445 -311 -258 -255 -295 -281 -382 -281 l-48 1
36 33 c55 52 68 74 60 104 -7 24 2 37 85 126 51 54 132 153 179 220 108 152
166 212 283 294 50 36 92 69 92 74 0 11 -4 9 -115 -67 -85 -59 -92 -62 -122
-51 -45 16 -51 26 -17 27 32 0 80 17 54 18 -9 1 -105 -17 -214 -39 l-199 -40
-100 -88 c-286 -248 -420 -339 -519 -349 -42 -4 -58 -2 -76 13 l-23 19 67 50
c62 47 101 96 90 114 -3 4 51 56 120 116 69 59 182 168 252 241 105 111 135
137 177 153 61 23 501 125 608 141 99 15 123 9 229 -51 48 -28 162 -86 255
-130 180 -86 286 -119 389 -119 213 0 536 121 1019 383 157 85 354 212 355
230 0 17 -29 3 -95 -44z m-2885 -64 c30 -7 123 -41 205 -73 l150 -60 -55 -6
c-30 -3 -147 -13 -260 -22 -176 -14 -211 -19 -245 -39 -40 -22 -41 -22 -185
-9 -177 16 -251 30 -313 56 -54 24 -77 50 -77 90 0 27 2 28 38 22 54 -8 106
-7 202 4 47 6 119 11 160 12 41 0 120 9 175 19 127 24 139 24 205 6z m433
-606 c40 -6 74 -13 76 -15 2 -2 -11 -21 -30 -42 -19 -21 -56 -69 -82 -106
l-49 -69 -176 7 c-181 7 -225 13 -220 26 2 4 45 44 96 88 83 72 99 82 160 96
122 28 134 29 225 15z"/>
<path d="M497 3195 c-61 -21 -112 -60 -131 -100 -45 -93 30 -176 195 -218 l54
-14 5 -104 c6 -110 14 -135 56 -168 54 -42 138 -16 230 71 47 45 55 49 50 28
-3 -14 -11 -58 -17 -97 -9 -55 -16 -73 -28 -73 -9 0 -52 -4 -96 -9 -200 -23
-307 -111 -292 -238 10 -95 103 -143 214 -112 92 25 195 157 225 289 l11 48
66 10 c37 6 95 26 132 45 l66 34 5 -109 c6 -114 19 -151 58 -163 40 -13 88 32
188 174 65 93 66 94 74 65 10 -38 35 -56 59 -43 11 5 33 33 49 62 l31 52 -8
-40 c-13 -70 -8 -161 10 -189 37 -56 97 -24 198 105 34 43 63 78 64 76 2 -1
-4 -47 -11 -101 -9 -61 -11 -103 -5 -109 22 -22 45 15 86 134 50 147 81 213
97 203 6 -4 8 -3 5 3 -8 12 20 39 30 29 4 -3 -1 -57 -11 -119 -20 -124 -19
-160 6 -165 12 -2 30 23 67 95 58 113 107 183 127 183 18 0 18 5 -10 -87 -14
-43 -27 -94 -30 -113 -3 -19 -8 -46 -10 -60 -5 -34 17 -86 44 -100 34 -18 83
5 140 67 64 70 144 182 136 190 -3 4 -7 4 -9 2 -1 -2 -36 -48 -76 -102 -101
-135 -169 -179 -191 -122 -9 24 -4 49 48 226 16 54 18 71 8 90 -29 60 -97 15
-166 -111 -23 -41 -39 -64 -35 -50 3 14 9 52 12 86 7 74 -6 104 -45 104 -47
-1 -69 -27 -119 -137 -29 -67 -34 -72 -29 -38 12 78 12 80 -10 83 -15 2 -28
-9 -51 -45 -82 -132 -200 -250 -225 -225 -26 26 -2 200 44 316 26 68 12 98
-28 59 -10 -10 -35 -19 -56 -20 -60 -2 -98 -31 -133 -99 -70 -138 -216 -322
-247 -312 -39 13 -45 99 -17 263 9 52 19 72 70 135 78 98 149 237 149 294 0
55 -22 86 -62 86 -46 0 -99 -61 -137 -158 -28 -74 -71 -255 -71 -302 0 -29
-55 -77 -117 -100 -59 -22 -153 -37 -153 -24 0 5 6 41 14 79 28 138 29 154 12
161 -12 4 -34 -13 -75 -58 -96 -105 -197 -146 -244 -100 -17 18 -21 34 -21 89
0 37 3 89 7 114 l8 46 77 5 c164 9 305 120 305 240 0 93 -117 136 -229 84 -80
-37 -147 -126 -185 -246 -16 -51 -19 -55 -48 -54 -108 6 -231 87 -231 155 0
67 48 115 144 144 22 6 35 14 30 17 -5 4 -26 0 -47 -7z m485 -5 c95 -27 92
-141 -7 -228 -56 -49 -130 -79 -219 -88 -77 -8 -77 -8 -46 80 40 116 96 195
165 230 35 19 57 20 107 6z m508 -105 c18 -22 14 -83 -8 -143 -21 -54 -119
-209 -148 -232 -14 -13 -15 -10 -9 36 12 79 54 232 76 277 38 75 64 93 89 62z
m-577 -617 c-10 -54 -53 -155 -84 -198 -60 -83 -161 -121 -233 -88 -77 34 -84
157 -14 225 55 53 167 90 280 92 l58 1 -7 -32z"/>
<path d="M4140 3084 c-58 -50 -109 -179 -140 -358 -15 -89 -24 -117 -51 -155
-57 -80 -131 -161 -162 -178 -28 -14 -31 -14 -44 3 -17 23 -16 87 2 199 19
117 19 117 -7 113 -17 -2 -27 -16 -40 -51 -29 -77 -192 -277 -226 -277 -49 0
-38 149 22 315 18 50 22 71 14 76 -14 9 -48 -7 -48 -22 0 -6 -10 -10 -22 -9
-79 7 -127 -23 -160 -99 -23 -55 -144 -199 -187 -224 -29 -17 -32 -17 -38 -1
-3 9 4 66 15 128 29 149 29 207 -1 242 -19 21 -29 26 -49 21 -35 -9 -86 -64
-121 -130 -27 -51 -28 -52 -25 -17 2 26 -1 36 -14 38 -23 4 -34 -20 -46 -103
-24 -155 -24 -165 -7 -171 22 -9 25 -5 42 73 32 141 124 293 179 293 22 0 24
-4 24 -42 0 -24 -7 -81 -15 -128 -40 -222 -6 -285 101 -182 27 26 67 68 88 95
l38 47 17 -32 c29 -60 70 -45 118 42 13 25 21 36 18 25 -16 -50 -17 -170 -2
-207 32 -75 98 -42 209 103 l53 69 5 -84 c6 -97 23 -126 73 -126 41 0 81 33
158 130 l64 82 6 -106 c8 -143 35 -184 97 -152 38 20 86 76 167 194 l63 93 41
-76 c23 -42 41 -78 41 -80 0 -2 -17 -13 -37 -25 -72 -41 -96 -108 -60 -164 13
-20 26 -26 53 -26 85 0 120 50 111 158 l-5 68 52 27 c50 26 162 124 153 134
-3 2 -27 -18 -55 -45 -46 -45 -156 -113 -165 -102 -16 19 -91 157 -97 182 -12
40 3 74 40 93 29 15 33 15 57 0 22 -15 25 -22 20 -57 -6 -43 7 -40 18 4 5 21
1 33 -19 52 -29 30 -55 32 -100 11 -41 -20 -59 -49 -57 -99 0 -35 -11 -57 -74
-152 -75 -112 -142 -184 -170 -184 -37 0 -44 89 -20 238 14 88 18 96 68 156
130 159 189 314 137 366 -27 27 -62 25 -100 -6z m88 4 c7 -7 12 -33 12 -58 0
-56 -46 -154 -121 -260 -52 -72 -54 -74 -57 -45 -4 38 51 252 78 304 33 66 62
85 88 59z m187 -732 c0 -72 -20 -106 -63 -106 -86 0 -80 118 7 168 47 27 56
17 56 -62z"/>
<path d="M3475 1810 c-11 -4 -56 -6 -101 -3 -64 5 -88 2 -118 -12 -77 -37
-211 -147 -407 -332 -36 -35 -72 -63 -80 -63 -8 0 -73 34 -144 77 -287 169
-479 237 -725 258 -91 8 -193 -5 -388 -50 -245 -56 -483 -102 -757 -144 -342
-54 -326 -51 -319 -62 3 -5 13 -8 22 -5 10 3 166 28 347 56 357 56 528 88 766
146 138 33 168 37 284 37 106 0 150 -5 237 -26 108 -27 248 -76 329 -117 64
-33 302 -171 318 -186 11 -10 0 -21 -59 -62 -89 -63 -129 -78 -250 -95 -136
-20 -141 -17 -245 118 -80 103 -244 275 -262 275 -22 0 -14 -17 16 -37 15 -10
57 -52 92 -93 35 -41 107 -125 160 -185 85 -97 96 -114 92 -139 -4 -20 -2 -27
6 -22 6 4 11 14 11 21 0 22 28 32 115 40 98 8 183 36 249 80 28 19 132 108
232 197 216 195 257 229 331 274 47 28 67 34 115 34 32 0 58 -2 58 -5 0 -3
-23 -27 -51 -54 -44 -42 -50 -54 -48 -82 2 -31 -8 -44 -127 -164 -72 -71 -170
-179 -218 -240 -99 -125 -151 -172 -289 -257 -53 -33 -100 -65 -104 -71 -11
-18 26 1 130 65 101 62 119 66 162 34 19 -15 18 -15 -15 -16 -37 0 -82 -20
-47 -20 61 0 444 62 466 76 13 9 74 56 135 104 231 182 427 297 521 307 58 6
115 -10 115 -32 0 -7 -24 -28 -52 -46 -80 -51 -118 -88 -118 -114 0 -19 -32
-48 -145 -135 -80 -61 -190 -153 -243 -203 -207 -197 -193 -189 -412 -226
-483 -82 -598 -92 -660 -55 -19 12 -92 57 -162 100 -142 89 -327 190 -393 216
-186 73 -407 58 -718 -48 -350 -120 -874 -363 -996 -461 -44 -36 -5 -33 50 4
65 44 183 103 429 216 362 166 505 221 700 270 109 27 142 31 265 32 129 0
146 -2 220 -28 177 -63 421 -197 617 -339 117 -85 133 -89 346 -91 l187 -2
200 -95 200 -95 125 5 c293 10 481 4 608 -19 68 -12 128 -19 134 -15 12 8 3
92 -14 130 -13 29 -83 74 -150 96 -25 9 -115 28 -200 43 -84 14 -166 29 -181
33 -25 6 -7 19 195 134 123 69 302 165 398 213 194 97 216 111 199 132 -6 7
-19 13 -28 13 -9 0 -28 15 -43 34 -34 42 -92 59 -163 45 -27 -5 -183 -68 -345
-141 -299 -133 -367 -160 -430 -172 l-34 -6 29 31 c67 71 231 198 400 311 99
67 199 136 223 155 49 40 55 69 15 79 -15 4 -43 18 -62 32 -32 21 -44 23 -100
19 -74 -6 -146 -40 -306 -145 -55 -36 -114 -68 -131 -72 -17 -4 -70 -1 -118 6
-47 7 -132 16 -189 20 -162 11 -160 4 -22 142 66 65 163 153 215 194 125 99
164 142 150 168 -12 22 -15 23 -45 10z m-215 -540 c68 -6 141 -15 162 -21 l38
-10 -27 -23 c-156 -127 -198 -153 -263 -164 -126 -21 -149 -22 -232 -7 -115
22 -117 23 -92 43 12 9 56 59 99 110 l77 93 57 -6 c31 -3 112 -10 181 -15z
m1094 -131 c14 -11 26 -25 26 -30 0 -5 -36 -27 -80 -49 -93 -47 -120 -70 -120
-104 0 -21 -16 -32 -115 -79 -143 -69 -300 -159 -428 -244 l-97 -65 -398 -9
c-218 -4 -425 -11 -459 -14 -70 -7 -155 12 -193 43 -23 19 -23 19 66 25 144
10 678 103 721 126 21 11 60 42 86 69 38 38 54 48 72 44 34 -6 146 30 262 84
54 25 166 75 248 110 83 36 175 76 205 89 73 32 166 34 204 4z m-528 -582
c270 -45 348 -80 369 -168 4 -15 3 -29 -2 -32 -5 -3 -41 1 -82 10 -45 9 -83
12 -99 7 -15 -5 -110 -9 -212 -9 -102 0 -239 -4 -305 -8 -117 -8 -122 -7 -187
20 -124 52 -327 148 -328 155 0 4 125 8 278 10 264 3 279 4 317 25 22 12 42
22 45 23 3 0 95 -15 206 -33z"/>
</g>
</svg>
