<?xml version="1.0" encoding="UTF-8"?>
<svg version="1.1" xmlns="http://www.w3.org/2000/svg" width="1024" height="1024">
<path d="M0 0 C337.92 0 675.84 0 1024 0 C1024 337.92 1024 675.84 1024 1024 C686.08 1024 348.16 1024 0 1024 C0 686.08 0 348.16 0 0 Z " fill="#FEFEFE" transform="translate(0,0)"/>
<path d="M0 0 C6.77869021 3.18997186 9.6707149 8.31571845 12.12890625 15.12890625 C21.62030098 48.15615802 19.45118476 90.21091131 15 124 C14.87109375 125.06138184 14.7421875 126.12276367 14.609375 127.21630859 C10.57808024 160.1992052 3.5558909 194.77863643 -13 224 C-13.33 224.66 -13.66 225.32 -14 226 C-13.45625732 225.93941406 -12.91251465 225.87882813 -12.35229492 225.81640625 C0.69919602 224.41923172 13.69403019 223.76074493 26.8125 223.75 C27.90584152 223.74898788 27.90584152 223.74898788 29.02127075 223.74795532 C37.62511347 223.76058183 46.19057398 224.01130972 54.77734375 224.55859375 C55.57545975 224.60901825 56.37357574 224.65944275 57.19587708 224.71139526 C61.03964192 224.96050157 64.87912941 225.23633036 68.71801758 225.55175781 C70.10887573 225.65314569 71.49974434 225.75439019 72.890625 225.85546875 C74.09750977 225.95496826 75.30439453 226.05446777 76.54785156 226.15698242 C82.1134193 225.90389472 85.85725088 224.1173547 89.8125 220.25 C121.73228438 179.61720361 142.6548853 128.25015082 153 78 C153.16338867 77.21077148 153.32677734 76.42154297 153.49511719 75.60839844 C155.11188116 67.61904117 156.17537239 59.62648862 157.06640625 51.52514648 C159.82327675 26.72963552 159.82327675 26.72963552 166.625 19.75 C170.54365487 16.75424329 173.85950835 16.12683195 178.734375 16.515625 C182.13604929 17.2428795 183.75549407 18.34740209 186 21 C200.73634434 48.89379465 185.23440079 96.85652726 176.75 124.6875 C172.62511926 137.81148537 167.65043124 150.46365236 162 163 C161.59136719 163.91217285 161.18273437 164.8243457 160.76171875 165.76416016 C150.21667872 189.10970712 137.37020208 213.78893983 119 232 C119.62414795 232.14397217 120.2482959 232.28794434 120.89135742 232.4362793 C135.95520424 235.97696759 150.54345944 240.35015176 165.125 245.5 C166.27178726 245.90295792 166.27178726 245.90295792 167.44174194 246.3140564 C174.26694644 248.72109311 181.06879393 251.14499584 187.72167969 254 C188.4903537 254.32842896 189.25902771 254.65685791 190.05099487 254.99523926 C191.514729 255.62751754 192.97341325 256.27166578 194.42581177 256.92956543 C198.36510674 258.63779207 200.88836056 259.44373686 205 258 C232.58496708 245.60035347 257.8743294 222.93389653 276 199 C276.40460449 198.47712402 276.80920898 197.95424805 277.22607422 197.41552734 C295.83125863 173.32303525 309.39250003 146.82568338 319.26025391 118.09985352 C325.65672014 99.74975993 325.65672014 99.74975993 333 96 C338.56197599 95.18775038 343.26362726 94.86604229 348.0625 98 C353.70458192 106.73612684 353.84970068 114.20203865 351.9375 124.25 C345.29855758 152.96728584 332.20057319 181.09464964 315 205 C314.56606934 205.60763184 314.13213867 206.21526367 313.68505859 206.84130859 C306.73469868 216.52412561 299.31983995 225.47150451 291 234 C290.37013184 234.65033203 289.74026367 235.30066406 289.09130859 235.97070312 C281.10694309 244.18893651 273.03540229 251.93354233 264 259 C262.66945414 260.08166433 261.34152694 261.1665544 260.015625 262.25390625 C258.95891602 263.1197937 258.95891602 263.1197937 257.88085938 264.00317383 C256.50148518 265.13395091 255.12254986 266.26526364 253.74414062 267.3972168 C241.9625995 277 241.9625995 277 239 277 C239 277.66 239 278.32 239 279 C239.7007666 279.26546631 240.4015332 279.53093262 241.12353516 279.80444336 C251.20164404 283.99324825 260.48996365 290.03161927 269.625 295.9375 C270.6665625 296.60201172 271.708125 297.26652344 272.78125 297.95117188 C278.95289716 301.91810967 284.94364907 306.06098102 290.83349609 310.43579102 C298.13041752 315.70414526 309.31224485 312.83334062 317.6875 311.5 C348.76634716 306.4688503 379.29457897 292.86666921 403 272 C403.83917969 271.27039063 404.67835938 270.54078125 405.54296875 269.7890625 C415.2396534 261.21989932 424.00601745 252.17389677 432 242 C432.53705566 241.32340332 433.07411133 240.64680664 433.62744141 239.94970703 C442.40350171 228.90092922 442.40350171 228.90092922 450.4375 217.3125 C454.22206457 211.4695213 458.36224107 205.69465819 465 203 C469.25964383 202.25795149 473.29297049 202.03882068 477.13671875 204.203125 C480.89397567 207.32235716 483.59813923 210.29444902 484.3359375 215.26171875 C484.44173256 221.83159187 483.12320503 226.2696751 480 232 C479.47535156 233.01578125 478.95070313 234.0315625 478.41015625 235.078125 C472.95620488 245.17888906 466.13725819 254.03923689 459 263 C458.2265625 263.98871094 457.453125 264.97742188 456.65625 265.99609375 C426.4282139 303.95032564 383.76813611 331.80558071 336 342 C336 342.66 336 343.32 336 344 C337.7388401 345.60867125 337.7388401 345.60867125 340.03125 347.2734375 C340.8965332 347.92731445 341.76181641 348.58119141 342.65332031 349.25488281 C343.59272461 349.95452148 344.53212891 350.65416016 345.5 351.375 C346.45745117 352.09526367 347.41490234 352.81552734 348.40136719 353.55761719 C350.35087263 355.02316132 352.30237024 356.48605919 354.25585938 357.94628906 C356.63062322 359.72355894 358.99746752 361.51039613 361.359375 363.3046875 C365.21840879 366.23209885 369.10205101 369.12465509 373 372 C373.67450195 372.49983398 374.34900391 372.99966797 375.04394531 373.51464844 C398.02731955 390.45938017 423.2805529 403.62109428 451.6953125 408.12890625 C456.33514226 409.35193466 459.5593622 411.47066051 462.83984375 414.953125 C465.03408797 418.82445151 464.78005136 422.70971755 464 427 C462.45833646 430.10668561 460.34391565 432.46316948 458 435 C457.31164062 435.78117187 456.62328125 436.56234375 455.9140625 437.3671875 C454.39971264 439.07282366 452.87177967 440.76647545 451.33203125 442.44921875 C449.85627779 444.06340134 448.39352391 445.68964996 446.94921875 447.33203125 C441.67271245 453.32399603 436.10181002 458.97137824 430.40380859 464.55932617 C426.8412523 468.07259809 423.51444638 471.68234803 420.29370117 475.51049805 C418.81801046 477.20953353 417.24877651 478.64780579 415.5 480.0625 C411.44603459 483.50057451 407.73384732 487.22328021 404 491 C399.15644402 495.8834493 394.25427476 500.55833716 389 505 C387.91393387 505.94758144 386.82945776 506.89698667 385.74609375 507.84765625 C372.91269065 519.09142849 359.7873884 529.93947143 346 540 C345.35369629 540.47373047 344.70739258 540.94746094 344.04150391 541.43554688 C272.84997424 593.55175553 192.77432568 636.86782248 104.25 649.0625 C103.12851562 649.22298828 102.00703125 649.38347656 100.8515625 649.54882812 C97.23720718 650.0567144 93.61969322 650.53172534 90 651 C89.338862 651.09073792 88.677724 651.18147583 87.99655151 651.27496338 C74.838711 653.06596539 61.82899452 653.31816565 48.5625 653.25 C47.5081778 653.24723053 46.45385559 653.24446106 45.36758423 653.24160767 C29.17993409 653.19177498 13.09626616 652.87546656 -3 651 C-4.20438721 650.86319824 -4.20438721 650.86319824 -5.43310547 650.72363281 C-40.96349527 646.44828508 -77.08014629 635.72168166 -110 622 C-110.89219238 621.62907227 -111.78438477 621.25814453 -112.70361328 620.87597656 C-125.40908505 615.5265572 -137.47435782 609.14995049 -149.48876953 602.40625 C-151.74467802 601.14297634 -154.00840296 599.89590843 -156.27734375 598.65625 C-191.96744417 579.05703003 -224.84945303 554.34433718 -256.30883789 528.61743164 C-261.39810087 524.46343764 -266.57272128 520.43948341 -271.796875 516.45703125 C-274.59739964 514.31874629 -277.36311758 512.13910349 -280.1237793 509.94970703 C-302.28828551 492.39237756 -325.70548416 476.04048168 -351.9375 465.125 C-358.78295759 462.26764023 -363.51912311 459.44121633 -367.9375 453.3125 C-370.56834258 445.11046138 -369.49706718 438.29466279 -365.61572266 430.62841797 C-361.10109161 422.67550604 -354.30949144 416.39557023 -347.90649414 409.96948242 C-346.17030781 408.17593458 -344.54636656 406.33763657 -342.93359375 404.43359375 C-337.6449692 398.30724148 -331.82243532 392.67403936 -326.09399414 386.96362305 C-324.0673702 384.94235732 -322.04614453 382.91580426 -320.02539062 380.88867188 C-313.85647095 374.71614073 -307.70943604 368.59135874 -301 363 C-299.82333441 361.99191673 -298.64754844 360.98280581 -297.47265625 359.97265625 C-296.63178467 359.25662231 -296.63178467 359.25662231 -295.77392578 358.52612305 C-294.59378927 357.51686222 -293.4192979 356.50097573 -292.24951172 355.47973633 C-289.59458554 353.16783033 -286.98988521 350.99294824 -284.09765625 348.9765625 C-280.29656008 346.2263223 -278.29600432 344.47288898 -277.3515625 339.7734375 C-277.2424664 335.78723385 -277.49737551 331.94663763 -278 328 C-278.16242188 326.69933594 -278.32484375 325.39867187 -278.4921875 324.05859375 C-284.88450822 280.51024627 -302.84113653 237.64793619 -327.97265625 201.75390625 C-328.46717285 201.04371338 -328.96168945 200.33352051 -329.47119141 199.60180664 C-330.41876689 198.243552 -331.37246674 196.88954038 -332.33349609 195.54077148 C-337.65756411 187.93312969 -340.05252325 181.42885407 -339 172 C-337.23315916 167.38658225 -334.38544865 165.19272433 -330 163 C-324.59533686 162.00914509 -319.77285382 162.78115489 -315.015625 165.515625 C-280.47762362 190.95058726 -259.54031234 253.96658145 -252.97265625 293.96484375 C-251.66301121 302.69820272 -250.80886636 311.15947934 -251 320 C-250.39373779 319.47792969 -249.78747559 318.95585937 -249.1628418 318.41796875 C-241.76424856 312.19331198 -234.00583098 306.7466653 -225.94995117 301.41601562 C-223.8273418 300.00983237 -221.713198 298.59157034 -219.59960938 297.171875 C-208.21746486 289.57219306 -196.59914909 281.83872665 -183.69946289 277.0793457 C-178.88729196 275.24522013 -174.97459177 273.68380174 -172.3359375 269.125 C-171.63283008 266.11371166 -171.36056484 263.28815472 -171.16165161 260.21200562 C-170.99652729 257.95248019 -170.76707434 255.70810943 -170.51855469 253.45629883 C-169.08625486 240.23888315 -168.63691122 227.16442865 -168.6875 213.875 C-168.68965515 212.84785889 -168.6918103 211.82071777 -168.69403076 210.76245117 C-168.74806508 194.65710038 -169.32179755 178.91406039 -172 163 C-172.20399414 161.76975098 -172.40798828 160.53950195 -172.61816406 159.27197266 C-176.28693583 137.72661648 -181.54014886 116.7745047 -189.13476562 96.26025391 C-191.96826717 88.59440884 -194.09854328 79.46840323 -191.05859375 71.546875 C-188.74129788 67.62417979 -186.36803335 64.62531474 -182 63 C-177.32349923 62.4803888 -175.0774425 62.46127875 -170.875 64.5625 C-148.48861309 83.54226282 -143.45689616 126.9475023 -138.75 154.3125 C-138.59885742 155.18076416 -138.44771484 156.04902832 -138.29199219 156.94360352 C-135.5498989 173.86504264 -134.64739016 190.8165811 -134.68432617 207.93847656 C-134.68749835 210.99840615 -134.6638525 214.05737525 -134.63867188 217.1171875 C-134.59859189 230.32691583 -135.76037518 242.98424623 -138 256 C-137.33170166 255.75878418 -136.66340332 255.51756836 -135.97485352 255.26904297 C-135.03569092 254.93018066 -134.09652832 254.59131836 -133.12890625 254.2421875 C-131.56849609 253.67914917 -131.56849609 253.67914917 -129.9765625 253.10473633 C-127.67905858 252.27718146 -125.38086756 251.45153198 -123.08203125 250.62768555 C-115.74080653 247.99875744 -115.74080653 247.99875744 -108.43359375 245.27734375 C-92.00030549 239.10358919 -74.70184476 235.22395874 -57.328125 232.8359375 C-52.39484398 231.59682701 -49.97744953 229.56257413 -47.296875 225.27734375 C-19.77913598 165.8640436 -12.53790555 96.62693374 -19.14204407 32.10333252 C-21.07549475 13.10259784 -21.07549475 13.10259784 -16 6 C-11.16376077 1.02804998 -6.96993597 -0.89892632 0 0 Z " fill="#F5C137" transform="translate(467,162)"/>
<path d="M0 0 C34.66403971 6.23565407 67.84917751 20.95170393 99 37 C99.70882324 37.3614209 100.41764648 37.7228418 101.14794922 38.09521484 C136.59855824 56.19815049 169.7043298 78.00328641 201.68164062 101.60742188 C244.63642997 133.5693139 244.63642997 133.5693139 293 156 C293 158 293 158 291.7421875 159.3046875 C291.12601563 159.82289063 290.50984375 160.34109375 289.875 160.875 C288.77671875 161.80892578 288.77671875 161.80892578 287.65625 162.76171875 C286.34140625 163.86966797 286.34140625 163.86966797 285 165 C283.37859236 166.38763051 281.76025713 167.77879847 280.1418457 169.16992188 C278.32971287 170.726398 276.51473229 172.27950036 274.69921875 173.83203125 C272.32213047 175.86571395 269.94963379 177.9045022 267.58203125 179.94921875 C252.16574743 193.2515491 236.40705013 205.93503737 220 218 C218.82920898 218.8650415 218.82920898 218.8650415 217.63476562 219.74755859 C207.71133191 227.06829663 197.61826764 234.02076645 187.19482422 240.60986328 C184.91701215 242.05256205 182.64759985 243.50785411 180.37890625 244.96484375 C169.43466938 251.96974314 158.33992966 258.65528652 147 265 C146.03739258 265.53882813 145.07478516 266.07765625 144.08300781 266.6328125 C93.17734271 294.9550498 39.52748584 312.24017819 -18 321 C-19.11431396 321.18908936 -20.22862793 321.37817871 -21.37670898 321.57299805 C-34.15344143 323.50573602 -46.99933131 323.33964509 -59.89575195 323.31567383 C-63.89747921 323.30879178 -67.89873706 323.33597784 -71.90039062 323.36132812 C-87.29872644 323.3989632 -102.26283541 322.56528479 -117.50448608 320.35916138 C-120.68919543 319.90080906 -123.88124729 319.50936765 -127.07421875 319.11328125 C-150.74489468 315.85109382 -173.66098291 309.41185822 -196 301 C-197.75113632 300.35501851 -199.50244352 299.71050082 -201.25390625 299.06640625 C-251.63190469 280.3803819 -295.58236508 250.64514883 -338.02734375 218.15234375 C-359.9282341 201.39440122 -382.06620843 184.77502793 -406 171 C-406.66032227 170.61908203 -407.32064453 170.23816406 -408.00097656 169.84570312 C-411.99144668 167.54740649 -415.9915247 165.26673411 -420 163 C-420 160 -420 160 -418.83898926 158.47149658 C-418.29464233 157.93079529 -417.75029541 157.39009399 -417.18945312 156.83300781 C-416.5746106 156.21516418 -415.95976807 155.59732056 -415.32629395 154.96075439 C-414.31399719 153.96697784 -414.31399719 153.96697784 -413.28125 152.953125 C-412.58994995 152.26369812 -411.8986499 151.57427124 -411.18640137 150.86395264 C-409.71694725 149.40123307 -408.24389402 147.94212182 -406.76757812 146.48632812 C-404.53011193 144.27969695 -402.30318835 142.06287985 -400.078125 139.84375 C-398.6464475 138.4212566 -397.21417373 136.99936302 -395.78125 135.578125 C-395.12257935 134.92370422 -394.46390869 134.26928345 -393.78527832 133.59503174 C-389.87651298 129.74493847 -385.86370132 126.06169039 -381.70799255 122.47921753 C-379.61039643 120.66258141 -377.59044313 118.7687692 -375.5625 116.875 C-363.33409558 105.85825151 -349.61306329 96.40938416 -336.33789062 86.70996094 C-334.10186397 85.07450452 -331.87109336 83.43208657 -329.640625 81.7890625 C-276.6198811 42.91278224 -217.51831661 13.39187801 -152 3 C-155.17702847 6.41901344 -158.73137216 9.00372948 -162.5625 11.625 C-168.32340854 15.64686581 -173.49312239 19.94835977 -178.61328125 24.76953125 C-180.56402015 26.5925622 -182.54144655 28.27351795 -184.625 29.9375 C-208.94826469 50.67871621 -225.24445629 87.48358908 -227.8190918 118.80517578 C-228.14760842 124.60675272 -228.18596166 130.40577509 -228.18530273 136.21484375 C-228.18748961 138.36478488 -228.20572091 140.51421145 -228.22460938 142.6640625 C-228.27428318 154.55556062 -226.84146428 165.88347111 -223.75 177.375 C-223.42467285 178.58615479 -223.42467285 178.58615479 -223.09277344 179.82177734 C-212.95794027 216.36051796 -188.50595164 250.43631431 -155.39892578 269.49755859 C-129.71158968 283.79585342 -104.04801246 292.47734027 -74.375 292.3125 C-73.67379028 292.31034485 -72.97258057 292.3081897 -72.25012207 292.30596924 C-28.02773961 292.0885398 11.72983193 273.80782516 43 243 C45.51579446 240.45014256 47.79464358 237.82185378 50 235 C50.7321875 234.07832031 51.464375 233.15664063 52.21875 232.20703125 C78.73569913 197.6410565 87.21133505 155.19739394 82.62060547 112.46875 C81.65956698 106.11928192 80.08225294 100.0691549 78 94 C77.71060547 93.1538916 77.42121094 92.3077832 77.12304688 91.43603516 C68.96993128 68.35717874 56.96641394 48.56788208 40 31 C38.89205078 29.81470703 38.89205078 29.81470703 37.76171875 28.60546875 C28.74186666 19.18986446 18.30615727 11.94953332 7.20483398 5.22290039 C2.17506867 2.17506867 2.17506867 2.17506867 0 0 Z " fill="#FEF9E0" transform="translate(574,440)"/>
<path d="M0 0 C0.89817444 -0.00526703 1.79634888 -0.01053406 2.72174072 -0.01596069 C57.59597121 -0.26465438 57.59597121 -0.26465438 75.3125 12.25 C76.63579589 13.12899509 77.9601058 14.00646458 79.28515625 14.8828125 C88.16821558 20.86137275 96.2473258 27.36008162 103.88525391 34.85791016 C105.21965414 36.15944114 106.58348609 37.43060486 107.94921875 38.69921875 C127.49453458 57.26266628 140.60829099 83.34156388 147.3125 109.25 C147.57361572 110.22759277 147.83473145 111.20518555 148.10375977 112.21240234 C150.50198673 122.0773989 150.82945814 131.5170678 150.75 141.625 C150.74662628 142.45771423 150.74325256 143.29042847 150.73977661 144.14837646 C150.48544421 187.61373189 134.98825899 225.81292304 104.05078125 256.57128906 C100.0317899 260.45255094 95.79433395 263.92153311 91.3125 267.25 C90.78865723 267.64880371 90.26481445 268.04760742 89.72509766 268.45849609 C72.15317966 281.80782429 52.67459675 290.40711932 31.375 296.125 C30.66762695 296.31602295 29.96025391 296.5070459 29.23144531 296.70385742 C17.23377784 299.73072891 5.15337979 300.66182512 -7.1875 300.625 C-7.8807135 300.62445618 -8.573927 300.62391235 -9.28814697 300.62335205 C-21.73950515 300.57875933 -33.61545559 299.40696189 -45.6875 296.25 C-46.43499512 296.05696289 -47.18249023 295.86392578 -47.95263672 295.66503906 C-67.39865238 290.40749254 -87.13548678 281.09999932 -102.6875 268.25 C-103.28095215 267.76499023 -103.8744043 267.27998047 -104.48583984 266.78027344 C-108.63870044 263.36384333 -112.69442422 259.85154607 -116.6875 256.25 C-117.43644531 255.57453125 -118.18539062 254.8990625 -118.95703125 254.203125 C-143.7972357 230.52651465 -161.76121394 193.08390583 -162.79443359 158.69042969 C-162.85812045 155.22549879 -162.87319352 151.76136106 -162.87280273 148.29589844 C-162.87497451 146.15018413 -162.89314554 144.00499786 -162.91210938 141.859375 C-162.96385173 129.41886772 -161.85620827 117.18780678 -158.625 105.125 C-158.41584961 104.34350586 -158.20669922 103.56201172 -157.99121094 102.75683594 C-148.49993034 69.21212816 -127.67651061 41.55470207 -100.1875 20.625 C-99.47980469 20.0784375 -98.77210938 19.531875 -98.04296875 18.96875 C-91.06854636 13.63911827 -84.74576654 8.93344304 -76 7.125 C-75.27433838 6.96596191 -74.54867676 6.80692383 -73.80102539 6.64306641 C-64.50273487 4.68253016 -55.1192731 3.36982309 -45.6875 2.25 C-44.40915283 2.09120361 -44.40915283 2.09120361 -43.10498047 1.92919922 C-28.76634397 0.21529893 -14.42141771 0.04276445 0 0 Z " fill="#0D2565" transform="translate(507.6875,432.75)"/>
<path d="M0 0 C6.77869021 3.18997186 9.6707149 8.31571845 12.12890625 15.12890625 C21.62030098 48.15615802 19.45118476 90.21091131 15 124 C14.87109375 125.06138184 14.7421875 126.12276367 14.609375 127.21630859 C10.76906927 158.63658778 4.98706215 199.09631493 -14.14282227 225.58227539 C-16.93738574 227.71557763 -20.01287191 227.94947739 -23.40625 228.421875 C-24.12735962 228.53098206 -24.84846924 228.64008911 -25.59143066 228.75250244 C-27.11362669 228.98009475 -28.63674082 229.20161824 -30.16064453 229.41748047 C-32.49367333 229.74910072 -34.82285407 230.10148533 -37.15234375 230.45703125 C-38.63263053 230.67571453 -40.1130944 230.89320309 -41.59375 231.109375 C-42.2906897 231.21449402 -42.98762939 231.31961304 -43.70568848 231.42791748 C-46.91424117 231.87409598 -48.8783139 232.04056203 -52 231 C-51.12408203 229.99453125 -51.12408203 229.99453125 -50.23046875 228.96875 C-13.56100543 180.16175854 -13.21375095 90.02380464 -19.14204407 32.10333252 C-21.07549475 13.10259784 -21.07549475 13.10259784 -16 6 C-11.16376077 1.02804998 -6.96993597 -0.89892632 0 0 Z " fill="#01A3AC" transform="translate(467,162)"/>
<path d="M0 0 C4.80645171 2.55662325 6.28568663 5.94277557 8 11 C16.14301397 55.10799232 -1.152298 106.40213793 -19 146 C-19.61294922 147.36825928 -19.61294922 147.36825928 -20.23828125 148.76416016 C-30.15525106 170.71922943 -42.08058614 192.75176359 -58 211 C-58.56976562 211.74894531 -59.13953125 212.49789062 -59.7265625 213.26953125 C-64.49280862 216.89744711 -71.20880167 214.89249833 -76.80078125 214.1953125 C-79.30552418 213.84446383 -81.80942274 213.48754124 -84.3125 213.125 C-85.58673828 212.95097656 -86.86097656 212.77695312 -88.17382812 212.59765625 C-89.39134766 212.42363281 -90.60886719 212.24960937 -91.86328125 212.0703125 C-92.96969971 211.91320801 -94.07611816 211.75610352 -95.21606445 211.59423828 C-98 211 -98 211 -101 209 C-99.96875 208.649375 -98.9375 208.29875 -97.875 207.9375 C-72.44096327 196.71809458 -54.01810872 141.73666139 -44.5703125 117.73046875 C-37.40784218 99.14898951 -32.0157601 80.50607188 -28 61 C-27.83661133 60.21077148 -27.67322266 59.42154297 -27.50488281 58.60839844 C-25.88811884 50.61904117 -24.82462761 42.62648862 -23.93359375 34.52514648 C-21.17672325 9.72963552 -21.17672325 9.72963552 -14.375 2.75 C-9.83107784 -0.72376479 -5.52713835 -1.18166406 0 0 Z " fill="#01A3AC" transform="translate(648,179)"/>
<path d="M0 0 C4.76601249 3.11249795 6.72997713 7.5851738 8 13 C12.30694971 43.56164315 -13.01207937 85.3901941 -30 109 C-30.650896 109.91144775 -30.650896 109.91144775 -31.31494141 110.84130859 C-38.26530132 120.52412561 -45.68016005 129.47150451 -54 138 C-54.62986816 138.65033203 -55.25973633 139.30066406 -55.90869141 139.97070312 C-63.89368512 148.18958312 -71.96749274 155.92897555 -81 163 C-82.30726923 164.06976951 -83.61174903 165.14295296 -84.9140625 166.21875 C-88.91132653 169.51917477 -92.94059396 172.77635403 -97 176 C-97.928125 176.73734375 -98.85625 177.4746875 -99.8125 178.234375 C-100.575625 178.79640625 -101.33875 179.3584375 -102.125 179.9375 C-102.74632812 180.40027344 -103.36765625 180.86304688 -104.0078125 181.33984375 C-108.92662342 182.96980266 -114.94341234 178.69584245 -119.3671875 176.5234375 C-120.04677521 176.19332672 -120.72636292 175.86321594 -121.42654419 175.52310181 C-123.57773005 174.47718564 -125.7263841 173.42618383 -127.875 172.375 C-129.34098099 171.66111973 -130.80712525 170.94757462 -132.2734375 170.234375 C-135.85085827 168.49345409 -139.42601883 166.74797055 -143 165 C-140.1721214 161.98979626 -137.03414303 160.38097748 -133.375 158.5625 C-108.52757328 145.7109078 -85.82588882 125.2176101 -69 103 C-68.39309326 102.21568604 -68.39309326 102.21568604 -67.77392578 101.41552734 C-49.16874137 77.32303525 -35.60749997 50.82568338 -25.73974609 22.09985352 C-20.96676017 8.40717772 -16.45944643 -2.57963585 0 0 Z " fill="#01A3AD" transform="translate(812,258)"/>
<path d="M0 0 C4.22908115 2.38127421 7.19174892 5.47937231 9 10 C10.07859183 17.26168219 8.44091976 22.68674552 5 29 C4.47535156 30.01578125 3.95070313 31.0315625 3.41015625 32.078125 C-2.04379512 42.17888906 -8.86274181 51.03923689 -16 60 C-16.7734375 60.98871094 -17.546875 61.97742188 -18.34375 62.99609375 C-46.78347183 98.70492359 -92.39803516 132.95760585 -139 139 C-143.28696367 138.6321638 -145.64908633 137.06537426 -149 134.4375 C-150.02867187 133.64085937 -151.05734375 132.84421875 -152.1171875 132.0234375 C-153.00809082 131.32686035 -153.00809082 131.32686035 -153.91699219 130.61621094 C-156.39133474 128.6963624 -158.88604756 126.80465633 -161.3828125 124.9140625 C-169.66819108 118.63574058 -169.66819108 118.63574058 -172.6328125 116.37890625 C-173.82221436 115.47507202 -173.82221436 115.47507202 -175.03564453 114.55297852 C-177 113 -177 113 -179 111 C-178.33170166 110.93006836 -177.66340332 110.86013672 -176.97485352 110.78808594 C-138.32022569 106.66298025 -101.73078522 95.17048902 -72 69 C-71.16082031 68.27039063 -70.32164062 67.54078125 -69.45703125 66.7890625 C-59.7603466 58.21989932 -50.99398255 49.17389677 -43 39 C-42.1944165 37.98510498 -42.1944165 37.98510498 -41.37255859 36.94970703 C-32.59649829 25.90092922 -32.59649829 25.90092922 -24.5625 14.3125 C-18.42387271 4.83509042 -12.04989282 -2.14713912 0 0 Z " fill="#01A3AD" transform="translate(942,365)"/>
<path d="M0 0 C13.75991691 6.87995846 17.50009811 23.31189565 22.03662109 36.80151367 C27.87360703 54.64446569 32.06902664 72.81892681 35.25 91.3125 C35.40114258 92.18076416 35.55228516 93.04902832 35.70800781 93.94360352 C38.44707771 110.84638531 39.35264311 127.78046049 39.31567383 144.88354492 C39.31250521 147.93249068 39.33613524 150.98046911 39.36132812 154.02929688 C39.40252695 167.57473589 38.20650453 180.63784285 36 194 C35.02248779 194.37874268 34.04497559 194.75748535 33.0378418 195.14770508 C25.05165739 198.25522004 17.27205731 201.65652213 9.54907227 205.37109375 C6.72182879 206.72972181 3.97962153 208.00679282 1 209 C1.08564209 208.36610352 1.17128418 207.73220703 1.25952148 207.07910156 C1.65527436 204.13647451 2.04640078 201.19324904 2.4375 198.25 C2.57220703 197.25355469 2.70691406 196.25710938 2.84570312 195.23046875 C6.95011009 164.1971478 7.20137363 130.90691446 2 100 C1.79600586 98.76975098 1.59201172 97.53950195 1.38183594 96.27197266 C-2.28693583 74.72661648 -7.54014886 53.7745047 -15.13476562 33.26025391 C-17.96826717 25.59440884 -20.09854328 16.46840323 -17.05859375 8.546875 C-13.03563466 1.73685022 -8.13597413 -1.41216119 0 0 Z " fill="#01A3AC" transform="translate(293,225)"/>
<path d="M0 0 C23.09549614 9.66146253 39.87746509 52.06760338 48.9609375 73.4453125 C58.83835342 98.06423872 69.85517656 127.38065439 67.9609375 154.4453125 C66.17735503 158.47424635 63.57126697 160.95218452 60.2734375 163.8203125 C59.38914062 164.59375 58.50484375 165.3671875 57.59375 166.1640625 C56.72492188 166.916875 55.85609375 167.6696875 54.9609375 168.4453125 C54.21585937 169.115625 53.47078125 169.7859375 52.703125 170.4765625 C52.02507812 171.085 51.34703125 171.6934375 50.6484375 172.3203125 C50.05417969 172.85398437 49.45992188 173.38765625 48.84765625 173.9375 C46.67027689 175.67760028 44.3749233 177.05758228 41.9609375 178.4453125 C41.88617188 177.14722656 41.81140625 175.84914063 41.734375 174.51171875 C38.47329371 126.47469049 18.40407563 77.35575825 -9.01171875 38.19921875 C-9.50623535 37.48902588 -10.00075195 36.77883301 -10.51025391 36.04711914 C-11.45782939 34.6888645 -12.41152924 33.33485288 -13.37255859 31.98608398 C-18.69662661 24.37844219 -21.09158575 17.87416657 -20.0390625 8.4453125 C-16.66795665 -0.35701944 -8.3697844 -2.2768379 0 0 Z " fill="#01A3AD" transform="translate(148.0390625,325.5546875)"/>
<path d="M0 0 C0.2475 0.639375 0.495 1.27875 0.75 1.9375 C1.81562433 4.18741541 1.81562433 4.18741541 4.125 4.75 C4.74375 4.8325 5.3625 4.915 6 5 C6 5.99 6 6.98 6 8 C1.87248551 7.39301257 -1.3321148 5.96189209 -5 4 C-3.36587557 2.29159719 -2.13093906 1.06546953 0 0 Z " fill="#0FA4B3" transform="translate(674,419)"/>
<path d="M0 0 C-4.455 2.97 -4.455 2.97 -9 6 C-9.66 5.67 -10.32 5.34 -11 5 C-11 4.67 -11 4.34 -11 4 C-11.66 4 -12.32 4 -13 4 C-13 3.34 -13 2.68 -13 2 C-11.21089097 1.47044766 -9.41860852 0.9516063 -7.625 0.4375 C-6.62726563 0.14746094 -5.62953125 -0.14257812 -4.6015625 -0.44140625 C-2 -1 -2 -1 0 0 Z " fill="#F8F7EC" transform="translate(422,444)"/>
<path d="M0 0 C-0.33 1.65 -0.66 3.3 -1 5 C-0.01 5.33 0.98 5.66 2 6 C1.67 6.66 1.34 7.32 1 8 C-0.50539661 7.05016642 -2.00420347 6.08988109 -3.5 5.125 C-4.3353125 4.59132813 -5.170625 4.05765625 -6.03125 3.5078125 C-6.6809375 3.01023437 -7.330625 2.51265625 -8 2 C-8 1.34 -8 0.68 -8 0 C-2.25 -1.125 -2.25 -1.125 0 0 Z " fill="#EEEDDF" transform="translate(592,445)"/>
<path d="M0 0 C0.99 0 1.98 0 3 0 C3 0.66 3 1.32 3 2 C4.32 1.67 5.64 1.34 7 1 C5.52307692 5.67692308 5.52307692 5.67692308 2.875 7.3125 C1.946875 7.6528125 1.946875 7.6528125 1 8 C0.67 5.36 0.34 2.72 0 0 Z " fill="#F6F2DE" transform="translate(406,446)"/>
<path d="M0 0 C0.66 1.32 1.32 2.64 2 4 C0.02 5.98 -1.96 7.96 -4 10 C-4.66 9.67 -5.32 9.34 -6 9 C-4.02 6.03 -2.04 3.06 0 0 Z " fill="#EDECE2" transform="translate(635,659)"/>
<path d="M0 0 C1 2 1 2 0.375 4.8125 C-1.18131396 8.42031873 -3.09336178 10.3993237 -6 13 C-4.58707905 8.1725201 -2.57025846 4.2837641 0 0 Z " fill="#0899A3" transform="translate(424,379)"/>
<path d="M0 0 C0.66 0.33 1.32 0.66 2 1 C-0.88341534 5.21422242 -3.04303419 6.76075855 -8 8 C-5.33333333 5.33333333 -2.66666667 2.66666667 0 0 Z " fill="#F3B720" transform="translate(817,639)"/>
<path d="M0 0 C2.31 0.33 4.62 0.66 7 1 C7.33 2.65 7.66 4.3 8 6 C6.66402348 5.19185349 5.331275 4.37836819 4 3.5625 C3.2575 3.11003906 2.515 2.65757812 1.75 2.19140625 C1.1725 1.79824219 0.595 1.40507812 0 1 C0 0.67 0 0.34 0 0 Z " fill="#0EA4B0" transform="translate(763,476)"/>
<path d="M0 0 C3.625 -0.1875 3.625 -0.1875 7 0 C7.33 0.66 7.66 1.32 8 2 C4.7 2.33 1.4 2.66 -2 3 C-1.34 2.01 -0.68 1.02 0 0 Z " fill="#1FA5AE" transform="translate(417,391)"/>
<path d="M0 0 C0.66 0.99 1.32 1.98 2 3 C-1.28696233 3.79953138 -2.71023192 4.09658936 -6 3 C-4.02 2.01 -2.04 1.02 0 0 Z " fill="#F6BD23" transform="translate(296,433)"/>
</svg>
