<?xml version="1.0" encoding="UTF-8"?>
<svg version="1.1" xmlns="http://www.w3.org/2000/svg" width="85" height="69">
<path d="M0 0 C28.05 0 56.1 0 85 0 C85 22.77 85 45.54 85 69 C56.95 69 28.9 69 0 69 C0 46.23 0 23.46 0 0 Z " fill="#FEFDFD" transform="translate(0,0)"/>
<path d="M0 0 C3.40944605 1.13648202 3.60693771 1.53988286 5.26171875 4.52734375 C5.65810547 5.23697266 6.05449219 5.94660156 6.46289062 6.67773438 C6.86701172 7.42345703 7.27113281 8.16917969 7.6875 8.9375 C8.10322266 9.67935547 8.51894531 10.42121094 8.94726562 11.18554688 C12 16.71455511 12 16.71455511 12 19 C12.66 19 13.32 19 14 19 C14.12689209 18.4112207 14.25378418 17.82244141 14.38452148 17.21582031 C15.34418863 13.76086634 17.25636978 10.81948556 19.0625 7.75 C19.43955078 7.1003125 19.81660156 6.450625 20.20507812 5.78125 C21.13234115 4.18494909 22.06558456 2.59212471 23 1 C24.32 1 25.64 1 27 1 C27.81593633 8.54243579 24.45520234 12.77153855 20.37890625 18.859375 C19.09267447 20.88111396 17.91571352 22.78500993 17 25 C17.48159422 27.79396397 17.48159422 27.79396397 19 30 C19.35858516 31.32676508 19.7018576 32.65835921 20 34 C20.88751953 33.91298828 20.88751953 33.91298828 21.79296875 33.82421875 C26.19779273 33.57271983 28.33719045 33.54009133 32.0625 36.125 C34 39 34 39 34.625 41.9375 C33.74931432 46.22835983 32.28826203 48.12277073 29 51 C26.12007882 51.87094391 23.88503517 51.84098191 21 51 C15.61650898 46.78683311 15.13451383 41.99605841 14.26171875 35.4140625 C14.17535156 34.61742187 14.08898437 33.82078125 14 33 C11.91537629 34.75591887 11.91537629 34.75591887 10 37 C10.03205545 38.98743771 10.06720112 40.97541602 10.16015625 42.9609375 C9.97138089 45.36437011 9.40021523 46.54986526 8 48.5 C4.66168114 51.28193238 3.1593845 51.86744871 -1.0625 51.515625 C-4.55075925 50.58729794 -6.00823896 48.92539902 -8 46 C-8.65622237 41.91683857 -8.37781677 39.77206035 -6.5625 36.0625 C-2.85142217 33.07553492 0.40861439 33.55852061 5 34 C5.70710678 32.35008418 6.36562656 30.6792238 7 29 C7.2784375 28.27941406 7.556875 27.55882813 7.84375 26.81640625 C8.11978219 21.84092595 4.84278363 18.13768957 2.24804688 14.05859375 C-0.49958037 9.52953785 -1.62203445 6.46551616 -1 1 C-0.67 0.67 -0.34 0.34 0 0 Z " fill="#E2797A" transform="translate(30,9)"/>
<path d="M0 0 C2.97 0.495 2.97 0.495 6 1 C6.33 1.99 6.66 2.98 7 4 C5.35 4.33 3.7 4.66 2 5 C1.91995518 8.5219721 1.95994298 11.61981469 3 15 C1.68 15.33 0.36 15.66 -1 16 C-3.41561488 13.4837345 -3.98985972 12.07967359 -4.4375 8.5625 C-3.93686067 4.48586544 -2.8188382 2.90692689 0 0 Z " fill="#E37A7A" transform="translate(26,43)"/>
<path d="M0 0 C0.33 0 0.66 0 1 0 C1.47863248 6.22222222 1.47863248 6.22222222 -0.5 9.4375 C-3.99128846 11.61955529 -6.98460796 11.85573929 -11 11 C-13.5 9 -13.5 9 -15 7 C-14.67 6.01 -14.34 5.02 -14 4 C-13.1646875 4.2165625 -13.1646875 4.2165625 -12.3125 4.4375 C-9.88615805 5.02769128 -7.45093655 5.523429 -5 6 C-4.360625 5.195625 -3.72125 4.39125 -3.0625 3.5625 C-1 1 -1 1 0 0 Z " fill="#E27575" transform="translate(62,49)"/>
<path d="M0 0 C2.5625 0.1875 2.5625 0.1875 4.5625 2.1875 C4.8125 4.6875 4.8125 4.6875 4.5625 7.1875 C3.9025 7.8475 3.2425 8.5075 2.5625 9.1875 C-1.99305556 8.63194444 -1.99305556 8.63194444 -3.4375 7.1875 C-3.5625 4.1875 -3.5625 4.1875 -3.4375 1.1875 C-2.4375 0.1875 -2.4375 0.1875 0 0 Z " fill="#FCF3F3" transform="translate(30.4375,46.8125)"/>
<path d="M0 0 C4.55555556 0.55555556 4.55555556 0.55555556 6 2 C6.1875 4.4375 6.1875 4.4375 6 7 C5.34 7.66 4.68 8.32 4 9 C-0.55555556 8.44444444 -0.55555556 8.44444444 -2 7 C-2.1875 4.5625 -2.1875 4.5625 -2 2 C-1.34 1.34 -0.68 0.68 0 0 Z " fill="#FDF6F6" transform="translate(53,47)"/>
<path d="M0 0 C3.65316671 1.24976756 4.78065836 1.67098753 7 5 C7.125 8.1875 7.125 8.1875 7 11 C6.01 10.01 5.02 9.02 4 8 C3.34 8.66 2.68 9.32 2 10 C1.7525 9.21625 1.505 8.4325 1.25 7.625 C-0.15389099 4.67682892 -1.00675737 4.0975223 -4 3 C-3.01 3 -2.02 3 -1 3 C-0.67 2.01 -0.34 1.02 0 0 Z " fill="#E48383" transform="translate(57,43)"/>
<path d="M0 0 C0.66 0 1.32 0 2 0 C2.33 1.32 2.66 2.64 3 4 C3.66 3.34 4.32 2.68 5 2 C5.66 4.31 6.32 6.62 7 9 C5.02 9.99 5.02 9.99 3 11 C0.39665076 8.28817788 0.00543309 7.10866187 -0.1875 3.25 C-0.125625 2.1775 -0.06375 1.105 0 0 Z " fill="#E48383" transform="translate(22,48)"/>
</svg>
