<?xml version="1.0" encoding="UTF-8"?>
<svg version="1.1" xmlns="http://www.w3.org/2000/svg" width="65" height="66">
<path d="M0 0 C21.45 0 42.9 0 65 0 C65 21.78 65 43.56 65 66 C43.55 66 22.1 66 0 66 C0 44.22 0 22.44 0 0 Z " fill="#FDFDFE" transform="translate(0,0)"/>
<path d="M0 0 C5.94 0 11.88 0 18 0 C18 6.27 18 12.54 18 19 C20.31 19 22.62 19 25 19 C27 21 27 21 27.265625 23.58203125 C27.16694707 43.98369227 27.16694707 43.98369227 23.8215332 48.64038086 C19.83779795 51.61389937 13.76879214 50.46564201 9 50.4375 C7.79859375 50.45748047 6.5971875 50.47746094 5.359375 50.49804688 C4.20953125 50.49740234 3.0596875 50.49675781 1.875 50.49609375 C0.82054687 50.49794678 -0.23390625 50.4997998 -1.3203125 50.50170898 C-4 50 -4 50 -5.8215332 48.14697266 C-9.59181194 41.27814498 -10.24626218 29.69198379 -9 22 C-7.85546875 20.1953125 -7.85546875 20.1953125 -6 19 C-4.02 19 -2.04 19 0 19 C0 12.73 0 6.46 0 0 Z " fill="#B09DFE" transform="translate(25,11)"/>
<path d="M0 0 C5.61 0 11.22 0 17 0 C17 6.27 17 12.54 17 19 C11.39 19 5.78 19 0 19 C0 12.73 0 6.46 0 0 Z " fill="#5A3BC8" transform="translate(26,11)"/>
</svg>
